{
	"asset":{
		"generator":"Khronos glTF Blender I/O v5.0.21",
		"version":"2.0"
	},
	"extensionsUsed":[
		"KHR_materials_specular"
	],
	"scene":0,
	"scenes":[
		{
			"extras":{
				"isStatic":true
			},
			"name":"Scene",
			"nodes":[
				0,
				1,
				2,
				3,
				4,
				5,
				6,
				7,
				8,
				9,
				10,
				11,
				12,
				13,
				14,
				15,
				16,
				17,
				18,
				19,
				20,
				21,
				22,
				28,
				32,
				34,
				37,
				42
			]
		}
	],
	"nodes":[
		{
			"extras":{
				"isStatic":true
			},
			"mesh":0,
			"name":"Floor",
			"scale":[
				2.0199999809265137,
				1,
				2.2699999809265137
			],
			"translation":[
				9.718649864196777,
				0.011172575876116753,
				-10.897971153259277
			]
		},
		{
			"extras":{
				"isStatic":true
			},
			"mesh":1,
			"name":"Box.000",
			"translation":[
				22.54122543334961,
				1.0288560390472412,
				2.1495938301086426
			]
		},
		{
			"extras":{
				"isStatic":true
			},
			"mesh":1,
			"name":"Box.001",
			"translation":[
				-3.6796302795410156,
				1.000000238418579,
				3.6910226345062256
			]
		},
		{
			"extras":{
				"isStatic":true
			},
			"mesh":1,
			"name":"Box.002",
			"translation":[
				9.574152946472168,
				1.000000238418579,
				4.254980564117432
			]
		},
		{
			"extras":{
				"isStatic":true
			},
			"mesh":1,
			"name":"Box.003",
			"rotation":[
				0,
				0.13535714149475098,
				0,
				0.9907969236373901
			],
			"translation":[
				1.7102844715118408,
				1,
				-18.312341690063477
			]
		},
		{
			"extras":{
				"isStatic":true
			},
			"mesh":1,
			"name":"Box.004",
			"rotation":[
				0,
				-0.2230888158082962,
				0,
				0.9747981429100037
			],
			"translation":[
				23.351993560791016,
				1,
				-5.353048801422119
			]
		},
		{
			"camera":0,
			"extras":{
				"isDynamic":false
			},
			"name":"Camera",
			"translation":[
				-0.06577014923095703,
				1.5,
				9.202191352844238
			]
		},
		{
			"extras":{
				"isStatic":true
			},
			"mesh":2,
			"name":"Wall.003",
			"rotation":[
				0,
				0.7071068286895752,
				0,
				0.7071067094802856
			],
			"scale":[
				2.5599987506866455,
				1,
				1
			],
			"translation":[
				-11,
				1,
				-10.476576805114746
			]
		},
		{
			"extras":{
				"isStatic":true
			},
			"mesh":3,
			"name":"Wall.004",
			"rotation":[
				0,
				-1,
				0,
				1.6292068494294654e-07
			],
			"scale":[
				2.080000162124634,
				1,
				1
			],
			"translation":[
				9.907636642456055,
				0.9699615240097046,
				-33.72370910644531
			]
		},
		{
			"extras":{
				"isStatic":true
			},
			"mesh":4,
			"name":"Wall.001",
			"rotation":[
				0,
				0.7071068286895752,
				0,
				0.7071067094802856
			],
			"scale":[
				2.469998836517334,
				1,
				1
			],
			"translation":[
				30.80890655517578,
				1,
				-10.204086303710938
			]
		},
		{
			"extras":{
				"isStatic":true
			},
			"mesh":5,
			"name":"Wall.002",
			"rotation":[
				0,
				-1,
				0,
				1.6292068494294654e-07
			],
			"scale":[
				2.080000162124634,
				1,
				1
			],
			"translation":[
				9.907636642456055,
				0.9699615240097046,
				13.297021865844727
			]
		},
		{
			"extras":{
				"isDynamic":true
			},
			"mesh":6,
			"name":"Object_218",
			"scale":[
				0.02500000037252903,
				0.02500000037252903,
				0.02500000037252903
			],
			"translation":[
				0.25508761405944824,
				1.1427239179611206,
				-0.9443343877792358
			]
		},
		{
			"extras":{
				"isStatic":true
			},
			"mesh":7,
			"name":"Box.005",
			"translation":[
				-1.6757009029388428,
				1.000000238418579,
				3.6910226345062256
			]
		},
		{
			"extras":{
				"isStatic":true
			},
			"mesh":8,
			"name":"Box.006",
			"translation":[
				-1.6757009029388428,
				3.0075948238372803,
				3.6910226345062256
			]
		},
		{
			"extras":{
				"isStatic":true
			},
			"mesh":9,
			"name":"Box.007",
			"translation":[
				0.3292365074157715,
				3.0075948238372803,
				3.6910226345062256
			]
		},
		{
			"extras":{
				"isStatic":true
			},
			"mesh":10,
			"name":"Box.008",
			"translation":[
				0.3292365074157715,
				1.000000238418579,
				3.6910226345062256
			]
		},
		{
			"extras":{
				"isStatic":true
			},
			"mesh":11,
			"name":"Box.009",
			"translation":[
				0.3292365074157715,
				4.981745719909668,
				3.6910226345062256
			]
		},
		{
			"extras":{
				"isStatic":true
			},
			"mesh":12,
			"name":"Box.010",
			"translation":[
				0.3292365074157715,
				4.981745719909668,
				1.7356722354888916
			]
		},
		{
			"extras":{
				"isStatic":true
			},
			"mesh":13,
			"name":"Box.011",
			"translation":[
				6.6936845779418945,
				1.000000238418579,
				4.254980564117432
			]
		},
		{
			"extras":{
				"isTrigger":true
			},
			"mesh":14,
			"name":"TriggerTest",
			"translation":[
				14.613083839416504,
				1.000000238418579,
				4.254980564117432
			]
		},
		{
			"extras":{
				"isStatic":true
			},
			"mesh":15,
			"name":"Box.012",
			"rotation":[
				0.40824830532073975,
				0,
				-0.40824830532073975,
				0.816496729850769
			],
			"scale":[
				0.2499999701976776,
				0.2499999701976776,
				0.2499999701976776
			],
			"translation":[
				14.621820449829102,
				1.1047210693359375,
				4.254980564117432
			]
		},
		{
			"extras":{
				"isStatic":true
			},
			"mesh":16,
			"name":"Box.013",
			"translation":[
				9.574152946472168,
				1.000000238418579,
				-15.75946044921875
			]
		},
		{
			"extras":{
				"isStatic":true
			},
			"mesh":17,
			"name":"Miza",
			"scale":[
				0.009534459561109543,
				0.009534459561109543,
				0.009534459561109543
			],
			"translation":[
				-1.5311379432678223,
				1.2785285711288452,
				-6.298232078552246
			]
		},
		{
			"mesh":18,
			"name":"Object_5",
			"scale":[
				9.064437866210938,
				9.064437866210938,
				8.40413761138916
			],
			"translation":[
				-2.6879138946533203,
				1.4152690172195435,
				-9.029932975769043
			]
		},
		{
			"children":[
				23
			],
			"name":"geometry_0_1"
		},
		{
			"children":[
				24
			],
			"name":"world_0"
		},
		{
			"children":[
				25
			],
			"name":"GLTF_SceneRootNode",
			"rotation":[
				0.70710688829422,
				0,
				0,
				0.7071066498756409
			]
		},
		{
			"children":[
				26
			],
			"name":"root"
		},
		{
			"children":[
				27
			],
			"name":"Sketchfab_model.001",
			"rotation":[
				-0.70710688829422,
				0,
				0,
				0.7071066498756409
			],
			"translation":[
				8.459226608276367,
				0.21346646547317505,
				-3.4875428676605225
			]
		},
		{
			"name":"polySurface32"
		},
		{
			"children":[
				29
			],
			"name":"RootNode.001"
		},
		{
			"children":[
				30
			],
			"name":"ae5c665a7bdb4880bcbfe362d4153322.fbx",
			"rotation":[
				0.70710688829422,
				0,
				0,
				0.7071066498756409
			],
			"scale":[
				0.009999999776482582,
				0.009999999776482582,
				0.009999999776482582
			]
		},
		{
			"children":[
				31
			],
			"name":"Sketchfab_model.002",
			"rotation":[
				-0.70710688829422,
				0,
				0,
				0.7071066498756409
			],
			"scale":[
				22.176715850830078,
				22.17671775817871,
				22.17671775817871
			],
			"translation":[
				-0.7995944023132324,
				0.566113293170929,
				-10.015634536743164
			]
		},
		{
			"name":"Sun.001"
		},
		{
			"children":[
				33
			],
			"name":"Sun",
			"rotation":[
				-0.1262088418006897,
				0.3478783965110779,
				0.07255198806524277,
				0.9261685609817505
			],
			"scale":[
				0.9999962449073792,
				0.9999943375587463,
				0.9999943375587463
			]
		},
		{
			"mesh":19,
			"name":"Object_3",
			"translation":[
				265.383056640625,
				382.0490417480469,
				-2.444969892501831
			]
		},
		{
			"children":[
				35
			],
			"name":"569098db339041538ba2181fd2f5d3de.obj.cleaner.materialmerger.gles"
		},
		{
			"children":[
				36
			],
			"name":"Sketchfab_model",
			"rotation":[
				-0.70710688829422,
				0,
				0,
				0.7071066498756409
			],
			"scale":[
				0.0842355489730835,
				0.08423555642366409,
				0.08423555642366409
			]
		},
		{
			"mesh":20,
			"name":"Conference_Chair_Material.002_0",
			"scale":[
				4.537067890167236,
				4.537067890167236,
				4.537067890167236
			],
			"translation":[
				-2.12892746925354,
				0,
				-0.6517981290817261
			]
		},
		{
			"children":[
				38
			],
			"name":"Conference_Chair",
			"rotation":[
				-0.70710688829422,
				0,
				0,
				0.7071066498756409
			],
			"scale":[
				100,
				99.99999237060547,
				99.99999237060547
			],
			"translation":[
				0,
				0,
				6.103515625e-05
			]
		},
		{
			"children":[
				39
			],
			"name":"RootNode",
			"translation":[
				0,
				0,
				6.103515625e-05
			]
		},
		{
			"children":[
				40
			],
			"name":"9de135c9f2f8411d9c12ee9b8c7aa38c.fbx",
			"rotation":[
				0.70710688829422,
				0,
				0,
				0.7071066498756409
			],
			"scale":[
				0.009999999776482582,
				0.010000000707805157,
				0.010000000707805157
			]
		},
		{
			"children":[
				41
			],
			"name":"Sketchfab_model.003",
			"rotation":[
				-0.70710688829422,
				0,
				0,
				0.7071066498756409
			],
			"translation":[
				-0.8444195985794067,
				1.003501534461975,
				-9.317577362060547
			]
		}
	],
	"cameras":[
		{
			"name":"Camera.001",
			"perspective":{
				"aspectRatio":1.7777777777777777,
				"yfov":1,
				"zfar":100,
				"znear":0.10000000149011612
			},
			"type":"perspective"
		}
	],
	"materials":[
		{
			"doubleSided":true,
			"extras":{
				"isStatic":true
			},
			"name":"Floor",
			"pbrMetallicRoughness":{
				"baseColorTexture":{
					"index":0
				},
				"metallicFactor":0,
				"roughnessFactor":0.5
			}
		},
		{
			"doubleSided":true,
			"name":"Box",
			"pbrMetallicRoughness":{
				"baseColorTexture":{
					"index":1
				},
				"metallicFactor":0,
				"roughnessFactor":0.5
			}
		},
		{
			"doubleSided":true,
			"name":"Wall.001",
			"pbrMetallicRoughness":{
				"baseColorTexture":{
					"index":2
				},
				"metallicFactor":0,
				"roughnessFactor":0.5
			}
		},
		{
			"doubleSided":true,
			"name":"Wall.006",
			"pbrMetallicRoughness":{
				"baseColorTexture":{
					"index":3
				},
				"metallicFactor":0,
				"roughnessFactor":0.5
			}
		},
		{
			"doubleSided":true,
			"name":"Wall.007",
			"pbrMetallicRoughness":{
				"baseColorTexture":{
					"index":4
				},
				"metallicFactor":0,
				"roughnessFactor":0.5
			}
		},
		{
			"doubleSided":true,
			"name":"Wall.008",
			"pbrMetallicRoughness":{
				"baseColorTexture":{
					"index":5
				},
				"metallicFactor":0,
				"roughnessFactor":0.5
			}
		},
		{
			"doubleSided":true,
			"name":"modelphong1.001",
			"pbrMetallicRoughness":{
				"baseColorTexture":{
					"index":6
				},
				"metallicFactor":0,
				"roughnessFactor":0.8942628502845764
			}
		},
		{
			"doubleSided":true,
			"name":"Box.001",
			"pbrMetallicRoughness":{
				"baseColorTexture":{
					"index":7
				},
				"metallicFactor":0,
				"roughnessFactor":0.5
			}
		},
		{
			"doubleSided":true,
			"name":"Box.002",
			"pbrMetallicRoughness":{
				"baseColorTexture":{
					"index":8
				},
				"metallicFactor":0,
				"roughnessFactor":0.5
			}
		},
		{
			"doubleSided":true,
			"name":"Box.003",
			"pbrMetallicRoughness":{
				"baseColorTexture":{
					"index":9
				},
				"metallicFactor":0,
				"roughnessFactor":0.5
			}
		},
		{
			"doubleSided":true,
			"name":"Box.004",
			"pbrMetallicRoughness":{
				"baseColorTexture":{
					"index":10
				},
				"metallicFactor":0,
				"roughnessFactor":0.5
			}
		},
		{
			"doubleSided":true,
			"name":"Box.005",
			"pbrMetallicRoughness":{
				"baseColorTexture":{
					"index":11
				},
				"metallicFactor":0,
				"roughnessFactor":0.5
			}
		},
		{
			"doubleSided":true,
			"name":"Box.006",
			"pbrMetallicRoughness":{
				"baseColorTexture":{
					"index":12
				},
				"metallicFactor":0,
				"roughnessFactor":0.5
			}
		},
		{
			"doubleSided":true,
			"name":"Box.007",
			"pbrMetallicRoughness":{
				"baseColorTexture":{
					"index":13
				},
				"metallicFactor":0,
				"roughnessFactor":0.5
			}
		},
		{
			"alphaMode":"BLEND",
			"doubleSided":true,
			"extras":{
				"isTrigger":true
			},
			"name":"Material.001",
			"pbrMetallicRoughness":{
				"baseColorFactor":[
					1,
					1,
					1,
					0.1812688708305359
				],
				"baseColorTexture":{
					"index":14
				},
				"metallicFactor":0,
				"roughnessFactor":0.5
			}
		},
		{
			"doubleSided":true,
			"name":"Box.008",
			"pbrMetallicRoughness":{
				"baseColorTexture":{
					"index":15
				},
				"metallicFactor":0,
				"roughnessFactor":0.5
			}
		},
		{
			"doubleSided":true,
			"name":"Box.009",
			"pbrMetallicRoughness":{
				"baseColorTexture":{
					"index":16
				},
				"metallicFactor":0,
				"roughnessFactor":0.5
			}
		},
		{
			"doubleSided":true,
			"name":"Scene_-_Root",
			"normalTexture":{
				"index":17
			},
			"pbrMetallicRoughness":{
				"baseColorTexture":{
					"index":18
				},
				"metallicRoughnessTexture":{
					"index":19
				}
			}
		},
		{
			"name":"material_0",
			"pbrMetallicRoughness":{
				"baseColorTexture":{
					"index":20
				}
			}
		},
		{
			"doubleSided":true,
			"extensions":{
				"KHR_materials_specular":{
					"specularFactor":0.6140971183776855
				}
			},
			"name":"Mat_1",
			"normalTexture":{
				"index":21
			},
			"pbrMetallicRoughness":{
				"baseColorTexture":{
					"index":22
				},
				"metallicRoughnessTexture":{
					"index":23
				},
				"roughnessFactor":0.4068583846092224
			}
		},
		{
			"doubleSided":true,
			"name":"Material.003",
			"normalTexture":{
				"index":24
			},
			"pbrMetallicRoughness":{
				"baseColorTexture":{
					"index":25
				},
				"metallicRoughnessTexture":{
					"index":26
				}
			}
		}
	],
	"meshes":[
		{
			"name":"Floor",
			"primitives":[
				{
					"attributes":{
						"POSITION":0,
						"NORMAL":1,
						"TEXCOORD_0":2
					},
					"indices":3,
					"material":0
				}
			]
		},
		{
			"name":"Box",
			"primitives":[
				{
					"attributes":{
						"POSITION":4,
						"NORMAL":5,
						"TEXCOORD_0":6
					},
					"indices":7,
					"material":1
				}
			]
		},
		{
			"name":"Wall.001",
			"primitives":[
				{
					"attributes":{
						"POSITION":8,
						"NORMAL":9,
						"TEXCOORD_0":10
					},
					"indices":7,
					"material":2
				}
			]
		},
		{
			"name":"Wall.006",
			"primitives":[
				{
					"attributes":{
						"POSITION":11,
						"NORMAL":12,
						"TEXCOORD_0":13
					},
					"indices":7,
					"material":3
				}
			]
		},
		{
			"name":"Wall.007",
			"primitives":[
				{
					"attributes":{
						"POSITION":14,
						"NORMAL":15,
						"TEXCOORD_0":16
					},
					"indices":7,
					"material":4
				}
			]
		},
		{
			"name":"Wall.008",
			"primitives":[
				{
					"attributes":{
						"POSITION":17,
						"NORMAL":18,
						"TEXCOORD_0":19
					},
					"indices":7,
					"material":5
				}
			]
		},
		{
			"name":"model:haena_exported:Mesh_model:phong1_0.001",
			"primitives":[
				{
					"attributes":{
						"POSITION":20,
						"NORMAL":21,
						"TEXCOORD_0":22
					},
					"indices":23,
					"material":6
				}
			]
		},
		{
			"name":"Box.001",
			"primitives":[
				{
					"attributes":{
						"POSITION":24,
						"NORMAL":25,
						"TEXCOORD_0":26
					},
					"indices":7,
					"material":7
				}
			]
		},
		{
			"name":"Box.002",
			"primitives":[
				{
					"attributes":{
						"POSITION":27,
						"NORMAL":28,
						"TEXCOORD_0":29
					},
					"indices":7,
					"material":8
				}
			]
		},
		{
			"name":"Box.003",
			"primitives":[
				{
					"attributes":{
						"POSITION":30,
						"NORMAL":31,
						"TEXCOORD_0":32
					},
					"indices":7,
					"material":9
				}
			]
		},
		{
			"name":"Box.004",
			"primitives":[
				{
					"attributes":{
						"POSITION":33,
						"NORMAL":34,
						"TEXCOORD_0":35
					},
					"indices":7,
					"material":10
				}
			]
		},
		{
			"name":"Box.005",
			"primitives":[
				{
					"attributes":{
						"POSITION":36,
						"NORMAL":37,
						"TEXCOORD_0":38
					},
					"indices":7,
					"material":11
				}
			]
		},
		{
			"name":"Box.006",
			"primitives":[
				{
					"attributes":{
						"POSITION":39,
						"NORMAL":40,
						"TEXCOORD_0":41
					},
					"indices":7,
					"material":12
				}
			]
		},
		{
			"name":"Box.007",
			"primitives":[
				{
					"attributes":{
						"POSITION":42,
						"NORMAL":43,
						"TEXCOORD_0":44
					},
					"indices":7,
					"material":13
				}
			]
		},
		{
			"name":"TriggerTest",
			"primitives":[
				{
					"attributes":{
						"POSITION":45,
						"NORMAL":46,
						"TEXCOORD_0":47
					},
					"indices":7,
					"material":14
				}
			]
		},
		{
			"name":"Box.008",
			"primitives":[
				{
					"attributes":{
						"POSITION":48,
						"NORMAL":49,
						"TEXCOORD_0":50
					},
					"indices":7,
					"material":15
				}
			]
		},
		{
			"name":"Box.009",
			"primitives":[
				{
					"attributes":{
						"POSITION":51,
						"NORMAL":52,
						"TEXCOORD_0":53
					},
					"indices":7,
					"material":16
				}
			]
		},
		{
			"name":"Miza",
			"primitives":[
				{
					"attributes":{
						"POSITION":54,
						"NORMAL":55,
						"TEXCOORD_0":56
					},
					"indices":57,
					"material":17
				}
			]
		},
		{
			"name":"Object_0",
			"primitives":[
				{
					"attributes":{
						"POSITION":58,
						"NORMAL":59,
						"TEXCOORD_0":60
					},
					"indices":61,
					"material":18
				}
			]
		},
		{
			"name":"Object_1",
			"primitives":[
				{
					"attributes":{
						"POSITION":62,
						"NORMAL":63,
						"TEXCOORD_0":64
					},
					"indices":65,
					"material":19
				}
			]
		},
		{
			"name":"Conference_Chair_Material.002_0",
			"primitives":[
				{
					"attributes":{
						"POSITION":66,
						"NORMAL":67,
						"TEXCOORD_0":68,
						"TEXCOORD_1":69,
						"TEXCOORD_2":70
					},
					"indices":71,
					"material":20
				}
			]
		}
	],
	"textures":[
		{
			"sampler":0,
			"source":0
		},
		{
			"sampler":0,
			"source":1
		},
		{
			"sampler":0,
			"source":2
		},
		{
			"sampler":0,
			"source":2
		},
		{
			"sampler":0,
			"source":2
		},
		{
			"sampler":0,
			"source":2
		},
		{
			"sampler":1,
			"source":3
		},
		{
			"sampler":0,
			"source":4
		},
		{
			"sampler":0,
			"source":4
		},
		{
			"sampler":0,
			"source":4
		},
		{
			"sampler":0,
			"source":4
		},
		{
			"sampler":0,
			"source":4
		},
		{
			"sampler":0,
			"source":4
		},
		{
			"sampler":0,
			"source":1
		},
		{
			"sampler":1,
			"source":5
		},
		{
			"sampler":0,
			"source":1
		},
		{
			"sampler":0,
			"source":1
		},
		{
			"sampler":1,
			"source":6
		},
		{
			"sampler":1,
			"source":7
		},
		{
			"sampler":1,
			"source":8
		},
		{
			"sampler":1,
			"source":9
		},
		{
			"sampler":1,
			"source":10
		},
		{
			"sampler":1,
			"source":11
		},
		{
			"sampler":1,
			"source":12
		},
		{
			"sampler":1,
			"source":13
		},
		{
			"sampler":1,
			"source":14
		},
		{
			"sampler":1,
			"source":15
		}
	],
	"images":[
		{
			"mimeType":"image/png",
			"name":"teksturaTal2",
			"uri":"teksturaTal2.png"
		},
		{
			"mimeType":"image/png",
			"name":"Box",
			"uri":"Box.png"
		},
		{
			"mimeType":"image/png",
			"name":"Wall",
			"uri":"Wall.png"
		},
		{
			"mimeType":"image/png",
			"name":"modelphong1_baseColor",
			"uri":"modelphong1_baseColor.png"
		},
		{
			"mimeType":"image/png",
			"name":"Box-1",
			"uri":"Box-1.png"
		},
		{
			"mimeType":"image/png",
			"name":"transparent",
			"uri":"transparent.png"
		},
		{
			"mimeType":"image/png",
			"name":"Scene_-_Root_normal",
			"uri":"Scene_-_Root_normal.png"
		},
		{
			"mimeType":"image/png",
			"name":"Scene_-_Root_baseColor",
			"uri":"Scene_-_Root_baseColor.png"
		},
		{
			"mimeType":"image/png",
			"name":"Scene_-_Root_metallicRoughness",
			"uri":"Scene_-_Root_metallicRoughness.png"
		},
		{
			"mimeType":"image/png",
			"name":"material_0_baseColor",
			"uri":"material_0_baseColor.png"
		},
		{
			"mimeType":"image/png",
			"name":"Mat_1_normal",
			"uri":"Mat_1_normal.png"
		},
		{
			"mimeType":"image/png",
			"name":"Mat_1_baseColor",
			"uri":"Mat_1_baseColor.png"
		},
		{
			"mimeType":"image/png",
			"name":"Mat_1_metallicRoughness",
			"uri":"Mat_1_metallicRoughness.png"
		},
		{
			"mimeType":"image/png",
			"name":"Material.002_normal",
			"uri":"Material.002_normal.png"
		},
		{
			"mimeType":"image/png",
			"name":"Material.002_baseColor",
			"uri":"Material.002_baseColor.png"
		},
		{
			"mimeType":"image/png",
			"name":"Material.002_metallicRoughness",
			"uri":"Material.002_metallicRoughness.png"
		}
	],
	"accessors":[
		{
			"bufferView":0,
			"componentType":5126,
			"count":4,
			"max":[
				10,
				0,
				10
			],
			"min":[
				-10,
				0,
				-10
			],
			"type":"VEC3"
		},
		{
			"bufferView":1,
			"componentType":5126,
			"count":4,
			"type":"VEC3"
		},
		{
			"bufferView":2,
			"componentType":5126,
			"count":4,
			"type":"VEC2"
		},
		{
			"bufferView":3,
			"componentType":5123,
			"count":6,
			"type":"SCALAR"
		},
		{
			"bufferView":4,
			"componentType":5126,
			"count":24,
			"max":[
				1,
				1,
				1
			],
			"min":[
				-1,
				-1,
				-1
			],
			"type":"VEC3"
		},
		{
			"bufferView":5,
			"componentType":5126,
			"count":24,
			"type":"VEC3"
		},
		{
			"bufferView":6,
			"componentType":5126,
			"count":24,
			"type":"VEC2"
		},
		{
			"bufferView":7,
			"componentType":5123,
			"count":36,
			"type":"SCALAR"
		},
		{
			"bufferView":8,
			"componentType":5126,
			"count":24,
			"max":[
				10.000003814697266,
				1,
				1
			],
			"min":[
				-9.999996185302734,
				-1,
				-1
			],
			"type":"VEC3"
		},
		{
			"bufferView":9,
			"componentType":5126,
			"count":24,
			"type":"VEC3"
		},
		{
			"bufferView":10,
			"componentType":5126,
			"count":24,
			"type":"VEC2"
		},
		{
			"bufferView":11,
			"componentType":5126,
			"count":24,
			"max":[
				10.000003814697266,
				1,
				1
			],
			"min":[
				-9.999996185302734,
				-1,
				-1
			],
			"type":"VEC3"
		},
		{
			"bufferView":12,
			"componentType":5126,
			"count":24,
			"type":"VEC3"
		},
		{
			"bufferView":13,
			"componentType":5126,
			"count":24,
			"type":"VEC2"
		},
		{
			"bufferView":14,
			"componentType":5126,
			"count":24,
			"max":[
				10.000003814697266,
				1,
				1
			],
			"min":[
				-9.999996185302734,
				-1,
				-1
			],
			"type":"VEC3"
		},
		{
			"bufferView":15,
			"componentType":5126,
			"count":24,
			"type":"VEC3"
		},
		{
			"bufferView":16,
			"componentType":5126,
			"count":24,
			"type":"VEC2"
		},
		{
			"bufferView":17,
			"componentType":5126,
			"count":24,
			"max":[
				10.000003814697266,
				1,
				1
			],
			"min":[
				-9.999996185302734,
				-1,
				-1
			],
			"type":"VEC3"
		},
		{
			"bufferView":18,
			"componentType":5126,
			"count":24,
			"type":"VEC3"
		},
		{
			"bufferView":19,
			"componentType":5126,
			"count":24,
			"type":"VEC2"
		},
		{
			"bufferView":20,
			"componentType":5126,
			"count":6387,
			"max":[
				13.088397979736328,
				61.40732955932617,
				30.388917922973633
			],
			"min":[
				-13.088397979736328,
				-0.28604963421821594,
				-28.152297973632812
			],
			"type":"VEC3"
		},
		{
			"bufferView":21,
			"componentType":5126,
			"count":6387,
			"type":"VEC3"
		},
		{
			"bufferView":22,
			"componentType":5126,
			"count":6387,
			"type":"VEC2"
		},
		{
			"bufferView":23,
			"componentType":5123,
			"count":34530,
			"type":"SCALAR"
		},
		{
			"bufferView":24,
			"componentType":5126,
			"count":24,
			"max":[
				1,
				1,
				1
			],
			"min":[
				-1,
				-1,
				-1
			],
			"type":"VEC3"
		},
		{
			"bufferView":25,
			"componentType":5126,
			"count":24,
			"type":"VEC3"
		},
		{
			"bufferView":26,
			"componentType":5126,
			"count":24,
			"type":"VEC2"
		},
		{
			"bufferView":27,
			"componentType":5126,
			"count":24,
			"max":[
				1,
				1,
				1
			],
			"min":[
				-1,
				-1,
				-1
			],
			"type":"VEC3"
		},
		{
			"bufferView":28,
			"componentType":5126,
			"count":24,
			"type":"VEC3"
		},
		{
			"bufferView":29,
			"componentType":5126,
			"count":24,
			"type":"VEC2"
		},
		{
			"bufferView":30,
			"componentType":5126,
			"count":24,
			"max":[
				1,
				1,
				1
			],
			"min":[
				-1,
				-1,
				-1
			],
			"type":"VEC3"
		},
		{
			"bufferView":31,
			"componentType":5126,
			"count":24,
			"type":"VEC3"
		},
		{
			"bufferView":32,
			"componentType":5126,
			"count":24,
			"type":"VEC2"
		},
		{
			"bufferView":33,
			"componentType":5126,
			"count":24,
			"max":[
				1,
				1,
				1
			],
			"min":[
				-1,
				-1,
				-1
			],
			"type":"VEC3"
		},
		{
			"bufferView":34,
			"componentType":5126,
			"count":24,
			"type":"VEC3"
		},
		{
			"bufferView":35,
			"componentType":5126,
			"count":24,
			"type":"VEC2"
		},
		{
			"bufferView":36,
			"componentType":5126,
			"count":24,
			"max":[
				1,
				1,
				1
			],
			"min":[
				-1,
				-1,
				-1
			],
			"type":"VEC3"
		},
		{
			"bufferView":37,
			"componentType":5126,
			"count":24,
			"type":"VEC3"
		},
		{
			"bufferView":38,
			"componentType":5126,
			"count":24,
			"type":"VEC2"
		},
		{
			"bufferView":39,
			"componentType":5126,
			"count":24,
			"max":[
				1,
				1,
				1
			],
			"min":[
				-1,
				-1,
				-1
			],
			"type":"VEC3"
		},
		{
			"bufferView":40,
			"componentType":5126,
			"count":24,
			"type":"VEC3"
		},
		{
			"bufferView":41,
			"componentType":5126,
			"count":24,
			"type":"VEC2"
		},
		{
			"bufferView":42,
			"componentType":5126,
			"count":24,
			"max":[
				1,
				1,
				1
			],
			"min":[
				-1,
				-1,
				-1
			],
			"type":"VEC3"
		},
		{
			"bufferView":43,
			"componentType":5126,
			"count":24,
			"type":"VEC3"
		},
		{
			"bufferView":44,
			"componentType":5126,
			"count":24,
			"type":"VEC2"
		},
		{
			"bufferView":45,
			"componentType":5126,
			"count":24,
			"max":[
				1,
				1,
				1
			],
			"min":[
				-1,
				-1,
				-1
			],
			"type":"VEC3"
		},
		{
			"bufferView":46,
			"componentType":5126,
			"count":24,
			"type":"VEC3"
		},
		{
			"bufferView":47,
			"componentType":5126,
			"count":24,
			"type":"VEC2"
		},
		{
			"bufferView":48,
			"componentType":5126,
			"count":24,
			"max":[
				1,
				1,
				1
			],
			"min":[
				-1,
				-1,
				-1
			],
			"type":"VEC3"
		},
		{
			"bufferView":49,
			"componentType":5126,
			"count":24,
			"type":"VEC3"
		},
		{
			"bufferView":50,
			"componentType":5126,
			"count":24,
			"type":"VEC2"
		},
		{
			"bufferView":51,
			"componentType":5126,
			"count":24,
			"max":[
				1,
				1,
				1
			],
			"min":[
				-1,
				-1,
				-1
			],
			"type":"VEC3"
		},
		{
			"bufferView":52,
			"componentType":5126,
			"count":24,
			"type":"VEC3"
		},
		{
			"bufferView":53,
			"componentType":5126,
			"count":24,
			"type":"VEC2"
		},
		{
			"bufferView":54,
			"componentType":5126,
			"count":728,
			"max":[
				175.77743530273438,
				115.33389282226562,
				168.13880920410156
			],
			"min":[
				-332.3705139160156,
				-89.15290832519531,
				-174.81466674804688
			],
			"type":"VEC3"
		},
		{
			"bufferView":55,
			"componentType":5126,
			"count":728,
			"type":"VEC3"
		},
		{
			"bufferView":56,
			"componentType":5126,
			"count":728,
			"type":"VEC2"
		},
		{
			"bufferView":57,
			"componentType":5123,
			"count":1350,
			"type":"SCALAR"
		},
		{
			"bufferView":58,
			"componentType":5126,
			"count":17173,
			"max":[
				0.5006480813026428,
				0.1997530162334442,
				0.2739972472190857
			],
			"min":[
				-0.501000165939331,
				-0.19617097079753876,
				-0.2687857747077942
			],
			"type":"VEC3"
		},
		{
			"bufferView":59,
			"componentType":5126,
			"count":17173,
			"type":"VEC3"
		},
		{
			"bufferView":60,
			"componentType":5126,
			"count":17173,
			"type":"VEC2"
		},
		{
			"bufferView":61,
			"componentType":5123,
			"count":55248,
			"type":"SCALAR"
		},
		{
			"bufferView":62,
			"componentType":5126,
			"count":2291,
			"max":[
				59.900001525878906,
				9.24034595489502,
				241.974853515625
			],
			"min":[
				-59.900001525878906,
				-6.125176906585693,
				-1.4999999621068127e-05
			],
			"type":"VEC3"
		},
		{
			"bufferView":63,
			"componentType":5126,
			"count":2291,
			"type":"VEC3"
		},
		{
			"bufferView":64,
			"componentType":5126,
			"count":2291,
			"type":"VEC2"
		},
		{
			"bufferView":65,
			"componentType":5123,
			"count":10008,
			"type":"SCALAR"
		},
		{
			"bufferView":66,
			"componentType":5126,
			"count":1158,
			"max":[
				0.207927405834198,
				0.23923316597938538,
				0.7896100878715515
			],
			"min":[
				-0.207927405834198,
				-0.17955738306045532,
				-0.002397641772404313
			],
			"type":"VEC3"
		},
		{
			"bufferView":67,
			"componentType":5126,
			"count":1158,
			"type":"VEC3"
		},
		{
			"bufferView":68,
			"componentType":5126,
			"count":1158,
			"type":"VEC2"
		},
		{
			"bufferView":69,
			"componentType":5126,
			"count":1158,
			"type":"VEC2"
		},
		{
			"bufferView":70,
			"componentType":5126,
			"count":1158,
			"type":"VEC2"
		},
		{
			"bufferView":71,
			"componentType":5123,
			"count":3720,
			"type":"SCALAR"
		}
	],
	"bufferViews":[
		{
			"buffer":0,
			"byteLength":48,
			"byteOffset":0,
			"target":34962
		},
		{
			"buffer":0,
			"byteLength":48,
			"byteOffset":48,
			"target":34962
		},
		{
			"buffer":0,
			"byteLength":32,
			"byteOffset":96,
			"target":34962
		},
		{
			"buffer":0,
			"byteLength":12,
			"byteOffset":128,
			"target":34963
		},
		{
			"buffer":0,
			"byteLength":288,
			"byteOffset":140,
			"target":34962
		},
		{
			"buffer":0,
			"byteLength":288,
			"byteOffset":428,
			"target":34962
		},
		{
			"buffer":0,
			"byteLength":192,
			"byteOffset":716,
			"target":34962
		},
		{
			"buffer":0,
			"byteLength":72,
			"byteOffset":908,
			"target":34963
		},
		{
			"buffer":0,
			"byteLength":288,
			"byteOffset":980,
			"target":34962
		},
		{
			"buffer":0,
			"byteLength":288,
			"byteOffset":1268,
			"target":34962
		},
		{
			"buffer":0,
			"byteLength":192,
			"byteOffset":1556,
			"target":34962
		},
		{
			"buffer":0,
			"byteLength":288,
			"byteOffset":1748,
			"target":34962
		},
		{
			"buffer":0,
			"byteLength":288,
			"byteOffset":2036,
			"target":34962
		},
		{
			"buffer":0,
			"byteLength":192,
			"byteOffset":2324,
			"target":34962
		},
		{
			"buffer":0,
			"byteLength":288,
			"byteOffset":2516,
			"target":34962
		},
		{
			"buffer":0,
			"byteLength":288,
			"byteOffset":2804,
			"target":34962
		},
		{
			"buffer":0,
			"byteLength":192,
			"byteOffset":3092,
			"target":34962
		},
		{
			"buffer":0,
			"byteLength":288,
			"byteOffset":3284,
			"target":34962
		},
		{
			"buffer":0,
			"byteLength":288,
			"byteOffset":3572,
			"target":34962
		},
		{
			"buffer":0,
			"byteLength":192,
			"byteOffset":3860,
			"target":34962
		},
		{
			"buffer":0,
			"byteLength":76644,
			"byteOffset":4052,
			"target":34962
		},
		{
			"buffer":0,
			"byteLength":76644,
			"byteOffset":80696,
			"target":34962
		},
		{
			"buffer":0,
			"byteLength":51096,
			"byteOffset":157340,
			"target":34962
		},
		{
			"buffer":0,
			"byteLength":69060,
			"byteOffset":208436,
			"target":34963
		},
		{
			"buffer":0,
			"byteLength":288,
			"byteOffset":277496,
			"target":34962
		},
		{
			"buffer":0,
			"byteLength":288,
			"byteOffset":277784,
			"target":34962
		},
		{
			"buffer":0,
			"byteLength":192,
			"byteOffset":278072,
			"target":34962
		},
		{
			"buffer":0,
			"byteLength":288,
			"byteOffset":278264,
			"target":34962
		},
		{
			"buffer":0,
			"byteLength":288,
			"byteOffset":278552,
			"target":34962
		},
		{
			"buffer":0,
			"byteLength":192,
			"byteOffset":278840,
			"target":34962
		},
		{
			"buffer":0,
			"byteLength":288,
			"byteOffset":279032,
			"target":34962
		},
		{
			"buffer":0,
			"byteLength":288,
			"byteOffset":279320,
			"target":34962
		},
		{
			"buffer":0,
			"byteLength":192,
			"byteOffset":279608,
			"target":34962
		},
		{
			"buffer":0,
			"byteLength":288,
			"byteOffset":279800,
			"target":34962
		},
		{
			"buffer":0,
			"byteLength":288,
			"byteOffset":280088,
			"target":34962
		},
		{
			"buffer":0,
			"byteLength":192,
			"byteOffset":280376,
			"target":34962
		},
		{
			"buffer":0,
			"byteLength":288,
			"byteOffset":280568,
			"target":34962
		},
		{
			"buffer":0,
			"byteLength":288,
			"byteOffset":280856,
			"target":34962
		},
		{
			"buffer":0,
			"byteLength":192,
			"byteOffset":281144,
			"target":34962
		},
		{
			"buffer":0,
			"byteLength":288,
			"byteOffset":281336,
			"target":34962
		},
		{
			"buffer":0,
			"byteLength":288,
			"byteOffset":281624,
			"target":34962
		},
		{
			"buffer":0,
			"byteLength":192,
			"byteOffset":281912,
			"target":34962
		},
		{
			"buffer":0,
			"byteLength":288,
			"byteOffset":282104,
			"target":34962
		},
		{
			"buffer":0,
			"byteLength":288,
			"byteOffset":282392,
			"target":34962
		},
		{
			"buffer":0,
			"byteLength":192,
			"byteOffset":282680,
			"target":34962
		},
		{
			"buffer":0,
			"byteLength":288,
			"byteOffset":282872,
			"target":34962
		},
		{
			"buffer":0,
			"byteLength":288,
			"byteOffset":283160,
			"target":34962
		},
		{
			"buffer":0,
			"byteLength":192,
			"byteOffset":283448,
			"target":34962
		},
		{
			"buffer":0,
			"byteLength":288,
			"byteOffset":283640,
			"target":34962
		},
		{
			"buffer":0,
			"byteLength":288,
			"byteOffset":283928,
			"target":34962
		},
		{
			"buffer":0,
			"byteLength":192,
			"byteOffset":284216,
			"target":34962
		},
		{
			"buffer":0,
			"byteLength":288,
			"byteOffset":284408,
			"target":34962
		},
		{
			"buffer":0,
			"byteLength":288,
			"byteOffset":284696,
			"target":34962
		},
		{
			"buffer":0,
			"byteLength":192,
			"byteOffset":284984,
			"target":34962
		},
		{
			"buffer":0,
			"byteLength":8736,
			"byteOffset":285176,
			"target":34962
		},
		{
			"buffer":0,
			"byteLength":8736,
			"byteOffset":293912,
			"target":34962
		},
		{
			"buffer":0,
			"byteLength":5824,
			"byteOffset":302648,
			"target":34962
		},
		{
			"buffer":0,
			"byteLength":2700,
			"byteOffset":308472,
			"target":34963
		},
		{
			"buffer":0,
			"byteLength":206076,
			"byteOffset":311172,
			"target":34962
		},
		{
			"buffer":0,
			"byteLength":206076,
			"byteOffset":517248,
			"target":34962
		},
		{
			"buffer":0,
			"byteLength":137384,
			"byteOffset":723324,
			"target":34962
		},
		{
			"buffer":0,
			"byteLength":110496,
			"byteOffset":860708,
			"target":34963
		},
		{
			"buffer":0,
			"byteLength":27492,
			"byteOffset":971204,
			"target":34962
		},
		{
			"buffer":0,
			"byteLength":27492,
			"byteOffset":998696,
			"target":34962
		},
		{
			"buffer":0,
			"byteLength":18328,
			"byteOffset":1026188,
			"target":34962
		},
		{
			"buffer":0,
			"byteLength":20016,
			"byteOffset":1044516,
			"target":34963
		},
		{
			"buffer":0,
			"byteLength":13896,
			"byteOffset":1064532,
			"target":34962
		},
		{
			"buffer":0,
			"byteLength":13896,
			"byteOffset":1078428,
			"target":34962
		},
		{
			"buffer":0,
			"byteLength":9264,
			"byteOffset":1092324,
			"target":34962
		},
		{
			"buffer":0,
			"byteLength":9264,
			"byteOffset":1101588,
			"target":34962
		},
		{
			"buffer":0,
			"byteLength":9264,
			"byteOffset":1110852,
			"target":34962
		},
		{
			"buffer":0,
			"byteLength":7440,
			"byteOffset":1120116,
			"target":34963
		}
	],
	"samplers":[
		{
			"magFilter":9728,
			"minFilter":9984
		},
		{
			"magFilter":9729,
			"minFilter":9987
		}
	],
	"buffers":[
		{
			"byteLength":1127556,
			"uri":"scene.bin"
		}
	]
}
