{
	"asset":{
		"generator":"Khronos glTF Blender I/O v5.0.21",
		"version":"2.0"
	},
	"scene":0,
	"scenes":[
		{
			"extras":{
				"isStatic":true
			},
			"name":"Scene",
			"nodes":[
				0,
				1,
				2,
				3,
				4,
				5,
				6,
				7,
				8,
				9,
				10,
				11,
				12,
				13,
				14,
				15,
				17,
				19,
				21,
				23,
				24,
				25,
				26,
				27
			]
		}
	],
	"nodes":[
		{
			"camera":0,
			"extras":{
				"isDynamic":false
			},
			"name":"Camera",
			"translation":[
				-0.06577014923095703,
				1.5,
				18.422653198242188
			]
		},
		{
			"extras":{
				"isDynamic":true
			},
			"mesh":0,
			"name":"Object_218",
			"scale":[
				0.02500000037252903,
				0.02500000037252903,
				0.02500000037252903
			],
			"translation":[
				0.4228421449661255,
				0.0239638090133667,
				-28.56300926208496
			]
		},
		{
			"extras":{
				"isStatic":true,
				"used":false,
				"isTrigger":true
			},
			"mesh":1,
			"name":"Box.014",
			"rotation":[
				0.40824830532073975,
				0,
				-0.40824830532073975,
				0.816496729850769
			],
			"scale":[
				0.2499999701976776,
				0.2499999701976776,
				0.2499999701976776
			],
			"translation":[
				13.26479434967041,
				8.731122970581055,
				-29.196962356567383
			]
		},
		{
			"extras":{
				"isStatic":true
			},
			"mesh":2,
			"name":"Wall.001",
			"rotation":[
				0,
				-1,
				0,
				1.6292068494294654e-07
			],
			"scale":[
				2.1000001430511475,
				17.089998245239258,
				1
			],
			"translation":[
				8.376571655273438,
				14.504585266113281,
				14.842164039611816
			]
		},
		{
			"extras":{
				"isStatic":true
			},
			"mesh":3,
			"name":"FactoryFloor",
			"rotation":[
				0,
				-1,
				0,
				1.6292068494294654e-07
			],
			"translation":[
				9.425082206726074,
				-0.9845750331878662,
				-9.718649864196777
			]
		},
		{
			"extras":{
				"isStatic":true
			},
			"mesh":4,
			"name":"GrassFloor",
			"rotation":[
				0,
				-1,
				0,
				1.6292068494294654e-07
			],
			"translation":[
				-30.358646392822266,
				-0.9845750331878662,
				-9.718636512756348
			]
		},
		{
			"extras":{
				"isStatic":true
			},
			"mesh":5,
			"name":"Wall.002",
			"rotation":[
				0,
				-0.7071068286895752,
				0,
				0.7071068286895752
			],
			"scale":[
				2.4499998092651367,
				17.089998245239258,
				1
			],
			"translation":[
				30.376564025878906,
				14.504585266113281,
				-10.157848358154297
			]
		},
		{
			"extras":{
				"isStatic":true
			},
			"mesh":6,
			"name":"Wall.004",
			"rotation":[
				0,
				-1,
				0,
				1.6292068494294654e-07
			],
			"scale":[
				2.1000001430511475,
				17.089998245239258,
				1
			],
			"translation":[
				8.376555442810059,
				14.504585266113281,
				-34.1578369140625
			]
		},
		{
			"extras":{
				"isStatic":true
			},
			"mesh":7,
			"name":"FactoryFloor.001",
			"rotation":[
				0,
				-1,
				0,
				1.6292068494294654e-07
			],
			"translation":[
				9.425082206726074,
				31.015424728393555,
				-9.718649864196777
			]
		},
		{
			"extras":{
				"isStatic":true
			},
			"mesh":8,
			"name":"Wall.005",
			"rotation":[
				0,
				-1,
				0,
				1.6292068494294654e-07
			],
			"scale":[
				2.1000001430511475,
				17.089998245239258,
				1
			],
			"translation":[
				-30.623428344726562,
				14.504585266113281,
				14.84217643737793
			]
		},
		{
			"extras":{
				"isStatic":true
			},
			"mesh":9,
			"name":"Wall.006",
			"rotation":[
				0,
				-1,
				0,
				1.6292068494294654e-07
			],
			"scale":[
				2.1000001430511475,
				17.089998245239258,
				1
			],
			"translation":[
				-30.623443603515625,
				14.504585266113281,
				-34.1578254699707
			]
		},
		{
			"extras":{
				"isStatic":true
			},
			"mesh":10,
			"name":"Wall.007",
			"rotation":[
				0,
				-0.7071068286895752,
				0,
				0.7071068286895752
			],
			"scale":[
				2.4499998092651367,
				17.089998245239258,
				1
			],
			"translation":[
				-50.623435974121094,
				14.504585266113281,
				-10.157845497131348
			]
		},
		{
			"extras":{
				"isStatic":true
			},
			"mesh":11,
			"name":"FactoryFloor.002",
			"rotation":[
				0,
				-1,
				0,
				1.6292068494294654e-07
			],
			"translation":[
				-30.334917068481445,
				31.015424728393555,
				-9.718636512756348
			]
		},
		{
			"extras":{
				"isStatic":true
			},
			"mesh":12,
			"name":"Wall.008",
			"rotation":[
				0,
				-0.7071068286895752,
				0,
				0.7071068286895752
			],
			"scale":[
				2.0999999046325684,
				17.089998245239258,
				1
			],
			"translation":[
				-10.623443603515625,
				14.504585266113281,
				-34.157833099365234
			]
		},
		{
			"extras":{
				"isStatic":true
			},
			"mesh":13,
			"name":"Wall.009",
			"rotation":[
				0,
				-0.7071068286895752,
				0,
				0.7071068286895752
			],
			"scale":[
				2.0999999046325684,
				17.089998245239258,
				1
			],
			"translation":[
				-10.623441696166992,
				14.504585266113281,
				16.842166900634766
			]
		},
		{
			"extras":{
				"isStatic":true
			},
			"mesh":14,
			"name":"Wall.010",
			"rotation":[
				0,
				-0.7071068286895752,
				0,
				0.7071068286895752
			],
			"scale":[
				2.0999999046325684,
				17.089998245239258,
				1
			],
			"translation":[
				-10.623442649841309,
				26.50458526611328,
				-13.157833099365234
			]
		},
		{
			"name":"Object_8"
		},
		{
			"children":[
				16
			],
			"name":"Object_7",
			"rotation":[
				0.70710688829422,
				0,
				0,
				0.7071066498756409
			]
		},
		{
			"name":"Object_11"
		},
		{
			"children":[
				18
			],
			"name":"Object_10",
			"rotation":[
				0.70710688829422,
				0,
				0,
				0.7071066498756409
			]
		},
		{
			"name":"Object_14"
		},
		{
			"children":[
				20
			],
			"name":"Object_13",
			"rotation":[
				0.70710688829422,
				0,
				0,
				0.7071066498756409
			]
		},
		{
			"name":"Object_17"
		},
		{
			"children":[
				22
			],
			"name":"Object_16",
			"rotation":[
				0.70710688829422,
				0,
				0,
				0.7071066498756409
			]
		},
		{
			"extras":{
				"isStatic":true
			},
			"mesh":15,
			"name":"Table",
			"rotation":[
				-0.49666598439216614,
				-0.5033119320869446,
				-0.5033119916915894,
				0.49666598439216614
			],
			"scale":[
				12.294533729553223,
				12.294533729553223,
				12.294532775878906
			],
			"translation":[
				8.398978233337402,
				5.721917629241943,
				-31.823617935180664
			]
		},
		{
			"extras":{
				"isStatic":true
			},
			"mesh":16,
			"name":"Door",
			"scale":[
				2.2969532012939453,
				2.2969532012939453,
				2.2969532012939453
			],
			"translation":[
				-11.524727821350098,
				3.1597392559051514,
				-8.318031311035156
			]
		},
		{
			"extras":{
				"isStatic":true
			},
			"mesh":17,
			"name":"Cube.001",
			"translation":[
				-3.060546875,
				0.8853883743286133,
				-24.445343017578125
			]
		},
		{
			"extras":{
				"isStatic":true
			},
			"mesh":18,
			"name":"Cube.002",
			"scale":[
				2.2892510890960693,
				2.2892510890960693,
				2.2892510890960693
			],
			"translation":[
				-3.060546875,
				2.0793137550354004,
				-27.944236755371094
			]
		}
	],
	"cameras":[
		{
			"name":"Camera.003",
			"perspective":{
				"aspectRatio":1.7777777777777777,
				"yfov":1,
				"zfar":100,
				"znear":0.10000000149011612
			},
			"type":"perspective"
		}
	],
	"materials":[
		{
			"doubleSided":true,
			"name":"modelphong1.003",
			"pbrMetallicRoughness":{
				"baseColorTexture":{
					"index":0
				},
				"metallicFactor":0,
				"roughnessFactor":0.8942628502845764
			}
		},
		{
			"doubleSided":true,
			"name":"Box.030",
			"pbrMetallicRoughness":{
				"baseColorTexture":{
					"index":1
				},
				"metallicFactor":0,
				"roughnessFactor":0.5
			}
		},
		{
			"doubleSided":true,
			"name":"Wall.013",
			"pbrMetallicRoughness":{
				"baseColorTexture":{
					"index":2
				},
				"metallicFactor":0,
				"roughnessFactor":0.5
			}
		},
		{
			"doubleSided":true,
			"name":"Wall.014",
			"pbrMetallicRoughness":{
				"baseColorTexture":{
					"index":3
				},
				"metallicFactor":0,
				"roughnessFactor":0.5
			}
		},
		{
			"doubleSided":true,
			"name":"GrassFloor.004",
			"pbrMetallicRoughness":{
				"baseColorTexture":{
					"index":4
				},
				"metallicFactor":0,
				"roughnessFactor":0.5
			}
		},
		{
			"doubleSided":true,
			"name":"Wall.015",
			"pbrMetallicRoughness":{
				"baseColorTexture":{
					"index":5
				},
				"metallicFactor":0,
				"roughnessFactor":0.5
			}
		},
		{
			"doubleSided":true,
			"name":"Wall.016",
			"pbrMetallicRoughness":{
				"baseColorTexture":{
					"index":6
				},
				"metallicFactor":0,
				"roughnessFactor":0.5
			}
		},
		{
			"doubleSided":true,
			"name":"Wall.018",
			"pbrMetallicRoughness":{
				"baseColorTexture":{
					"index":7
				},
				"metallicFactor":0,
				"roughnessFactor":0.5
			}
		},
		{
			"doubleSided":true,
			"name":"Wall.019",
			"pbrMetallicRoughness":{
				"baseColorTexture":{
					"index":8
				},
				"metallicFactor":0,
				"roughnessFactor":0.5
			}
		},
		{
			"doubleSided":true,
			"name":"Wall.020",
			"pbrMetallicRoughness":{
				"baseColorTexture":{
					"index":9
				},
				"metallicFactor":0,
				"roughnessFactor":0.5
			}
		},
		{
			"doubleSided":true,
			"name":"Wall.021",
			"pbrMetallicRoughness":{
				"baseColorTexture":{
					"index":10
				},
				"metallicFactor":0,
				"roughnessFactor":0.5
			}
		},
		{
			"doubleSided":true,
			"name":"Wall.022",
			"pbrMetallicRoughness":{
				"baseColorTexture":{
					"index":11
				},
				"metallicFactor":0,
				"roughnessFactor":0.5
			}
		},
		{
			"doubleSided":true,
			"name":"Wall.023",
			"pbrMetallicRoughness":{
				"baseColorTexture":{
					"index":12
				},
				"metallicFactor":0,
				"roughnessFactor":0.5
			}
		},
		{
			"doubleSided":true,
			"name":"Wall.024",
			"pbrMetallicRoughness":{
				"baseColorTexture":{
					"index":13
				},
				"metallicFactor":0,
				"roughnessFactor":0.5
			}
		},
		{
			"doubleSided":true,
			"name":"Wall.025",
			"pbrMetallicRoughness":{
				"baseColorTexture":{
					"index":14
				},
				"metallicFactor":0,
				"roughnessFactor":0.5
			}
		},
		{
			"doubleSided":true,
			"name":"Wooden_Bench_ukiqbajbw.002",
			"pbrMetallicRoughness":{
				"baseColorTexture":{
					"index":15
				},
				"metallicFactor":0,
				"metallicRoughnessTexture":{
					"index":16
				}
			}
		},
		{
			"doubleSided":true,
			"name":"Material.006",
			"pbrMetallicRoughness":{
				"baseColorTexture":{
					"index":17
				},
				"metallicFactor":0,
				"roughnessFactor":0.5
			}
		},
		{
			"doubleSided":true,
			"name":"Material.007",
			"pbrMetallicRoughness":{
				"baseColorTexture":{
					"index":18
				},
				"metallicFactor":0,
				"roughnessFactor":0.5
			}
		},
		{
			"doubleSided":true,
			"name":"Material.010",
			"pbrMetallicRoughness":{
				"baseColorTexture":{
					"index":19
				},
				"metallicFactor":0,
				"roughnessFactor":0.5
			}
		}
	],
	"meshes":[
		{
			"name":"model:haena_exported:Mesh_model:phong1_0.003",
			"primitives":[
				{
					"attributes":{
						"POSITION":0,
						"NORMAL":1,
						"TEXCOORD_0":2
					},
					"indices":3,
					"material":0
				}
			]
		},
		{
			"extras":{
				"isStatic":true
			},
			"name":"Box.030",
			"primitives":[
				{
					"attributes":{
						"POSITION":4,
						"NORMAL":5,
						"TEXCOORD_0":6
					},
					"indices":7,
					"material":1
				}
			]
		},
		{
			"name":"Wall.013",
			"primitives":[
				{
					"attributes":{
						"POSITION":8,
						"NORMAL":9,
						"TEXCOORD_0":10
					},
					"indices":7,
					"material":2
				}
			]
		},
		{
			"name":"FactoryFloor.002",
			"primitives":[
				{
					"attributes":{
						"POSITION":11,
						"NORMAL":12,
						"TEXCOORD_0":13
					},
					"indices":14,
					"material":3
				}
			]
		},
		{
			"name":"GrassFloor.001",
			"primitives":[
				{
					"attributes":{
						"POSITION":15,
						"NORMAL":16,
						"TEXCOORD_0":17
					},
					"indices":14,
					"material":4
				}
			]
		},
		{
			"name":"Wall.014",
			"primitives":[
				{
					"attributes":{
						"POSITION":18,
						"NORMAL":19,
						"TEXCOORD_0":20
					},
					"indices":7,
					"material":5
				}
			]
		},
		{
			"name":"Wall.015",
			"primitives":[
				{
					"attributes":{
						"POSITION":21,
						"NORMAL":22,
						"TEXCOORD_0":23
					},
					"indices":7,
					"material":6
				}
			]
		},
		{
			"name":"FactoryFloor.003",
			"primitives":[
				{
					"attributes":{
						"POSITION":24,
						"NORMAL":25,
						"TEXCOORD_0":26
					},
					"indices":14,
					"material":7
				}
			]
		},
		{
			"name":"Wall.017",
			"primitives":[
				{
					"attributes":{
						"POSITION":27,
						"NORMAL":28,
						"TEXCOORD_0":29
					},
					"indices":7,
					"material":8
				}
			]
		},
		{
			"name":"Wall.018",
			"primitives":[
				{
					"attributes":{
						"POSITION":30,
						"NORMAL":31,
						"TEXCOORD_0":32
					},
					"indices":7,
					"material":9
				}
			]
		},
		{
			"name":"Wall.019",
			"primitives":[
				{
					"attributes":{
						"POSITION":33,
						"NORMAL":34,
						"TEXCOORD_0":35
					},
					"indices":7,
					"material":10
				}
			]
		},
		{
			"name":"FactoryFloor.004",
			"primitives":[
				{
					"attributes":{
						"POSITION":36,
						"NORMAL":37,
						"TEXCOORD_0":38
					},
					"indices":14,
					"material":11
				}
			]
		},
		{
			"name":"Wall.020",
			"primitives":[
				{
					"attributes":{
						"POSITION":39,
						"NORMAL":40,
						"TEXCOORD_0":41
					},
					"indices":7,
					"material":12
				}
			]
		},
		{
			"name":"Wall.021",
			"primitives":[
				{
					"attributes":{
						"POSITION":42,
						"NORMAL":43,
						"TEXCOORD_0":44
					},
					"indices":7,
					"material":13
				}
			]
		},
		{
			"name":"Wall.022",
			"primitives":[
				{
					"attributes":{
						"POSITION":45,
						"NORMAL":46,
						"TEXCOORD_0":47
					},
					"indices":7,
					"material":14
				}
			]
		},
		{
			"name":"\ufffd\ufffd\ufffd\ufffd\ufffd\ufffd\ufffd\ufffd\ufffd.066_Wooden_Bench_ukiqbajbw.002_0",
			"primitives":[
				{
					"attributes":{
						"POSITION":48,
						"NORMAL":49,
						"TEXCOORD_0":50,
						"TEXCOORD_1":51
					},
					"indices":52,
					"material":15
				}
			]
		},
		{
			"name":"Door",
			"primitives":[
				{
					"attributes":{
						"POSITION":53,
						"NORMAL":54,
						"TEXCOORD_0":55
					},
					"indices":56,
					"material":16
				}
			]
		},
		{
			"name":"Cube.008",
			"primitives":[
				{
					"attributes":{
						"POSITION":57,
						"NORMAL":58,
						"TEXCOORD_0":59
					},
					"indices":56,
					"material":17
				}
			]
		},
		{
			"name":"Cube.010",
			"primitives":[
				{
					"attributes":{
						"POSITION":60,
						"NORMAL":61,
						"TEXCOORD_0":62
					},
					"indices":56,
					"material":18
				}
			]
		}
	],
	"textures":[
		{
			"sampler":0,
			"source":0
		},
		{
			"sampler":1,
			"source":1
		},
		{
			"sampler":1,
			"source":2
		},
		{
			"sampler":1,
			"source":3
		},
		{
			"sampler":1,
			"source":4
		},
		{
			"sampler":1,
			"source":2
		},
		{
			"sampler":1,
			"source":2
		},
		{
			"sampler":1,
			"source":3
		},
		{
			"sampler":1,
			"source":2
		},
		{
			"sampler":1,
			"source":2
		},
		{
			"sampler":1,
			"source":2
		},
		{
			"sampler":1,
			"source":3
		},
		{
			"sampler":1,
			"source":2
		},
		{
			"sampler":1,
			"source":2
		},
		{
			"sampler":1,
			"source":2
		},
		{
			"sampler":0,
			"source":5
		},
		{
			"sampler":0,
			"source":6
		},
		{
			"sampler":0,
			"source":1
		},
		{
			"sampler":0,
			"source":1
		},
		{
			"sampler":0,
			"source":1
		}
	],
	"images":[
		{
			"mimeType":"image/png",
			"name":"modelphong1_baseColor",
			"uri":"modelphong1_baseColor.png"
		},
		{
			"mimeType":"image/png",
			"name":"Box",
			"uri":"Box.png"
		},
		{
			"mimeType":"image/png",
			"name":"Wall",
			"uri":"Wall.png"
		},
		{
			"mimeType":"image/png",
			"name":"cartoon-game-texture..._imresizer",
			"uri":"cartoon-game-texture..._imresizer.png"
		},
		{
			"mimeType":"image/png",
			"name":"Floor",
			"uri":"Floor.png"
		},
		{
			"mimeType":"image/jpeg",
			"name":"Wooden_Bench_ukiqbajbw.002_baseColor",
			"uri":"Wooden_Bench_ukiqbajbw.002_baseColor.jpg"
		},
		{
			"mimeType":"image/png",
			"name":"Wooden_Bench_ukiqbajbw.002_metallicRoughness",
			"uri":"Wooden_Bench_ukiqbajbw.002_metallicRoughness.png"
		}
	],
	"accessors":[
		{
			"bufferView":0,
			"componentType":5126,
			"count":6387,
			"max":[
				13.088397979736328,
				61.40732955932617,
				30.388917922973633
			],
			"min":[
				-13.088397979736328,
				-0.28604963421821594,
				-28.152297973632812
			],
			"type":"VEC3"
		},
		{
			"bufferView":1,
			"componentType":5126,
			"count":6387,
			"type":"VEC3"
		},
		{
			"bufferView":2,
			"componentType":5126,
			"count":6387,
			"type":"VEC2"
		},
		{
			"bufferView":3,
			"componentType":5123,
			"count":34530,
			"type":"SCALAR"
		},
		{
			"bufferView":4,
			"componentType":5126,
			"count":24,
			"max":[
				1,
				1,
				1
			],
			"min":[
				-1,
				-1,
				-1
			],
			"type":"VEC3"
		},
		{
			"bufferView":5,
			"componentType":5126,
			"count":24,
			"type":"VEC3"
		},
		{
			"bufferView":6,
			"componentType":5126,
			"count":24,
			"type":"VEC2"
		},
		{
			"bufferView":7,
			"componentType":5123,
			"count":36,
			"type":"SCALAR"
		},
		{
			"bufferView":8,
			"componentType":5126,
			"count":24,
			"max":[
				10.000003814697266,
				1,
				1
			],
			"min":[
				-9.999996185302734,
				-1,
				-1
			],
			"type":"VEC3"
		},
		{
			"bufferView":9,
			"componentType":5126,
			"count":24,
			"type":"VEC3"
		},
		{
			"bufferView":10,
			"componentType":5126,
			"count":24,
			"type":"VEC2"
		},
		{
			"bufferView":11,
			"componentType":5126,
			"count":88,
			"max":[
				19.890230178833008,
				0.9846644997596741,
				23.79466438293457
			],
			"min":[
				-19.890214920043945,
				-0.9846644997596741,
				-23.79466438293457
			],
			"type":"VEC3"
		},
		{
			"bufferView":12,
			"componentType":5126,
			"count":88,
			"type":"VEC3"
		},
		{
			"bufferView":13,
			"componentType":5126,
			"count":88,
			"type":"VEC2"
		},
		{
			"bufferView":14,
			"componentType":5123,
			"count":216,
			"type":"SCALAR"
		},
		{
			"bufferView":15,
			"componentType":5126,
			"count":88,
			"max":[
				19.890230178833008,
				0.9846644997596741,
				23.79466438293457
			],
			"min":[
				-19.890214920043945,
				-0.9846644997596741,
				-23.79466438293457
			],
			"type":"VEC3"
		},
		{
			"bufferView":16,
			"componentType":5126,
			"count":88,
			"type":"VEC3"
		},
		{
			"bufferView":17,
			"componentType":5126,
			"count":88,
			"type":"VEC2"
		},
		{
			"bufferView":18,
			"componentType":5126,
			"count":24,
			"max":[
				10.000003814697266,
				1,
				1
			],
			"min":[
				-9.999996185302734,
				-1,
				-1
			],
			"type":"VEC3"
		},
		{
			"bufferView":19,
			"componentType":5126,
			"count":24,
			"type":"VEC3"
		},
		{
			"bufferView":20,
			"componentType":5126,
			"count":24,
			"type":"VEC2"
		},
		{
			"bufferView":21,
			"componentType":5126,
			"count":24,
			"max":[
				10.000003814697266,
				1,
				1
			],
			"min":[
				-9.999996185302734,
				-1,
				-1
			],
			"type":"VEC3"
		},
		{
			"bufferView":22,
			"componentType":5126,
			"count":24,
			"type":"VEC3"
		},
		{
			"bufferView":23,
			"componentType":5126,
			"count":24,
			"type":"VEC2"
		},
		{
			"bufferView":24,
			"componentType":5126,
			"count":88,
			"max":[
				19.890230178833008,
				0.9846644997596741,
				23.79466438293457
			],
			"min":[
				-19.890214920043945,
				-0.9846644997596741,
				-23.79466438293457
			],
			"type":"VEC3"
		},
		{
			"bufferView":25,
			"componentType":5126,
			"count":88,
			"type":"VEC3"
		},
		{
			"bufferView":26,
			"componentType":5126,
			"count":88,
			"type":"VEC2"
		},
		{
			"bufferView":27,
			"componentType":5126,
			"count":24,
			"max":[
				10.000003814697266,
				1,
				1
			],
			"min":[
				-9.999996185302734,
				-1,
				-1
			],
			"type":"VEC3"
		},
		{
			"bufferView":28,
			"componentType":5126,
			"count":24,
			"type":"VEC3"
		},
		{
			"bufferView":29,
			"componentType":5126,
			"count":24,
			"type":"VEC2"
		},
		{
			"bufferView":30,
			"componentType":5126,
			"count":24,
			"max":[
				10.000003814697266,
				1,
				1
			],
			"min":[
				-9.999996185302734,
				-1,
				-1
			],
			"type":"VEC3"
		},
		{
			"bufferView":31,
			"componentType":5126,
			"count":24,
			"type":"VEC3"
		},
		{
			"bufferView":32,
			"componentType":5126,
			"count":24,
			"type":"VEC2"
		},
		{
			"bufferView":33,
			"componentType":5126,
			"count":24,
			"max":[
				10.000003814697266,
				1,
				1
			],
			"min":[
				-9.999996185302734,
				-1,
				-1
			],
			"type":"VEC3"
		},
		{
			"bufferView":34,
			"componentType":5126,
			"count":24,
			"type":"VEC3"
		},
		{
			"bufferView":35,
			"componentType":5126,
			"count":24,
			"type":"VEC2"
		},
		{
			"bufferView":36,
			"componentType":5126,
			"count":88,
			"max":[
				19.890230178833008,
				0.9846644997596741,
				23.79466438293457
			],
			"min":[
				-19.890214920043945,
				-0.9846644997596741,
				-23.79466438293457
			],
			"type":"VEC3"
		},
		{
			"bufferView":37,
			"componentType":5126,
			"count":88,
			"type":"VEC3"
		},
		{
			"bufferView":38,
			"componentType":5126,
			"count":88,
			"type":"VEC2"
		},
		{
			"bufferView":39,
			"componentType":5126,
			"count":24,
			"max":[
				10.000003814697266,
				1,
				1
			],
			"min":[
				-9.999996185302734,
				-1,
				-1
			],
			"type":"VEC3"
		},
		{
			"bufferView":40,
			"componentType":5126,
			"count":24,
			"type":"VEC3"
		},
		{
			"bufferView":41,
			"componentType":5126,
			"count":24,
			"type":"VEC2"
		},
		{
			"bufferView":42,
			"componentType":5126,
			"count":24,
			"max":[
				10.000003814697266,
				1,
				1
			],
			"min":[
				-9.999996185302734,
				-1,
				-1
			],
			"type":"VEC3"
		},
		{
			"bufferView":43,
			"componentType":5126,
			"count":24,
			"type":"VEC3"
		},
		{
			"bufferView":44,
			"componentType":5126,
			"count":24,
			"type":"VEC2"
		},
		{
			"bufferView":45,
			"componentType":5126,
			"count":24,
			"max":[
				10.000003814697266,
				1,
				1
			],
			"min":[
				-9.999996185302734,
				-1,
				-1
			],
			"type":"VEC3"
		},
		{
			"bufferView":46,
			"componentType":5126,
			"count":24,
			"type":"VEC3"
		},
		{
			"bufferView":47,
			"componentType":5126,
			"count":24,
			"type":"VEC2"
		},
		{
			"bufferView":48,
			"componentType":5126,
			"count":1032,
			"max":[
				0.599179744720459,
				0.760715901851654,
				0.10729467123746872
			],
			"min":[
				-0.08603453636169434,
				-0.6673235297203064,
				-0.48131412267684937
			],
			"type":"VEC3"
		},
		{
			"bufferView":49,
			"componentType":5126,
			"count":1032,
			"type":"VEC3"
		},
		{
			"bufferView":50,
			"componentType":5126,
			"count":1032,
			"type":"VEC2"
		},
		{
			"bufferView":51,
			"componentType":5126,
			"count":1032,
			"type":"VEC2"
		},
		{
			"bufferView":52,
			"componentType":5123,
			"count":3468,
			"type":"SCALAR"
		},
		{
			"bufferView":53,
			"componentType":5126,
			"count":24,
			"max":[
				2.804199695587158,
				2.804199695587158,
				2.804199695587158
			],
			"min":[
				-2.804199695587158,
				-2.804199695587158,
				-2.804199695587158
			],
			"type":"VEC3"
		},
		{
			"bufferView":54,
			"componentType":5126,
			"count":24,
			"type":"VEC3"
		},
		{
			"bufferView":55,
			"componentType":5126,
			"count":24,
			"type":"VEC2"
		},
		{
			"bufferView":56,
			"componentType":5123,
			"count":36,
			"type":"SCALAR"
		},
		{
			"bufferView":57,
			"componentType":5126,
			"count":24,
			"max":[
				0.9198572039604187,
				0.9198572039604187,
				0.9198572039604187
			],
			"min":[
				-0.9198572039604187,
				-0.9198572039604187,
				-0.9198572039604187
			],
			"type":"VEC3"
		},
		{
			"bufferView":58,
			"componentType":5126,
			"count":24,
			"type":"VEC3"
		},
		{
			"bufferView":59,
			"componentType":5126,
			"count":24,
			"type":"VEC2"
		},
		{
			"bufferView":60,
			"componentType":5126,
			"count":24,
			"max":[
				0.9198572039604187,
				0.9198572039604187,
				0.9198572039604187
			],
			"min":[
				-0.9198572039604187,
				-0.9198572039604187,
				-0.9198572039604187
			],
			"type":"VEC3"
		},
		{
			"bufferView":61,
			"componentType":5126,
			"count":24,
			"type":"VEC3"
		},
		{
			"bufferView":62,
			"componentType":5126,
			"count":24,
			"type":"VEC2"
		}
	],
	"bufferViews":[
		{
			"buffer":0,
			"byteLength":76644,
			"byteOffset":0,
			"target":34962
		},
		{
			"buffer":0,
			"byteLength":76644,
			"byteOffset":76644,
			"target":34962
		},
		{
			"buffer":0,
			"byteLength":51096,
			"byteOffset":153288,
			"target":34962
		},
		{
			"buffer":0,
			"byteLength":69060,
			"byteOffset":204384,
			"target":34963
		},
		{
			"buffer":0,
			"byteLength":288,
			"byteOffset":273444,
			"target":34962
		},
		{
			"buffer":0,
			"byteLength":288,
			"byteOffset":273732,
			"target":34962
		},
		{
			"buffer":0,
			"byteLength":192,
			"byteOffset":274020,
			"target":34962
		},
		{
			"buffer":0,
			"byteLength":72,
			"byteOffset":274212,
			"target":34963
		},
		{
			"buffer":0,
			"byteLength":288,
			"byteOffset":274284,
			"target":34962
		},
		{
			"buffer":0,
			"byteLength":288,
			"byteOffset":274572,
			"target":34962
		},
		{
			"buffer":0,
			"byteLength":192,
			"byteOffset":274860,
			"target":34962
		},
		{
			"buffer":0,
			"byteLength":1056,
			"byteOffset":275052,
			"target":34962
		},
		{
			"buffer":0,
			"byteLength":1056,
			"byteOffset":276108,
			"target":34962
		},
		{
			"buffer":0,
			"byteLength":704,
			"byteOffset":277164,
			"target":34962
		},
		{
			"buffer":0,
			"byteLength":432,
			"byteOffset":277868,
			"target":34963
		},
		{
			"buffer":0,
			"byteLength":1056,
			"byteOffset":278300,
			"target":34962
		},
		{
			"buffer":0,
			"byteLength":1056,
			"byteOffset":279356,
			"target":34962
		},
		{
			"buffer":0,
			"byteLength":704,
			"byteOffset":280412,
			"target":34962
		},
		{
			"buffer":0,
			"byteLength":288,
			"byteOffset":281116,
			"target":34962
		},
		{
			"buffer":0,
			"byteLength":288,
			"byteOffset":281404,
			"target":34962
		},
		{
			"buffer":0,
			"byteLength":192,
			"byteOffset":281692,
			"target":34962
		},
		{
			"buffer":0,
			"byteLength":288,
			"byteOffset":281884,
			"target":34962
		},
		{
			"buffer":0,
			"byteLength":288,
			"byteOffset":282172,
			"target":34962
		},
		{
			"buffer":0,
			"byteLength":192,
			"byteOffset":282460,
			"target":34962
		},
		{
			"buffer":0,
			"byteLength":1056,
			"byteOffset":282652,
			"target":34962
		},
		{
			"buffer":0,
			"byteLength":1056,
			"byteOffset":283708,
			"target":34962
		},
		{
			"buffer":0,
			"byteLength":704,
			"byteOffset":284764,
			"target":34962
		},
		{
			"buffer":0,
			"byteLength":288,
			"byteOffset":285468,
			"target":34962
		},
		{
			"buffer":0,
			"byteLength":288,
			"byteOffset":285756,
			"target":34962
		},
		{
			"buffer":0,
			"byteLength":192,
			"byteOffset":286044,
			"target":34962
		},
		{
			"buffer":0,
			"byteLength":288,
			"byteOffset":286236,
			"target":34962
		},
		{
			"buffer":0,
			"byteLength":288,
			"byteOffset":286524,
			"target":34962
		},
		{
			"buffer":0,
			"byteLength":192,
			"byteOffset":286812,
			"target":34962
		},
		{
			"buffer":0,
			"byteLength":288,
			"byteOffset":287004,
			"target":34962
		},
		{
			"buffer":0,
			"byteLength":288,
			"byteOffset":287292,
			"target":34962
		},
		{
			"buffer":0,
			"byteLength":192,
			"byteOffset":287580,
			"target":34962
		},
		{
			"buffer":0,
			"byteLength":1056,
			"byteOffset":287772,
			"target":34962
		},
		{
			"buffer":0,
			"byteLength":1056,
			"byteOffset":288828,
			"target":34962
		},
		{
			"buffer":0,
			"byteLength":704,
			"byteOffset":289884,
			"target":34962
		},
		{
			"buffer":0,
			"byteLength":288,
			"byteOffset":290588,
			"target":34962
		},
		{
			"buffer":0,
			"byteLength":288,
			"byteOffset":290876,
			"target":34962
		},
		{
			"buffer":0,
			"byteLength":192,
			"byteOffset":291164,
			"target":34962
		},
		{
			"buffer":0,
			"byteLength":288,
			"byteOffset":291356,
			"target":34962
		},
		{
			"buffer":0,
			"byteLength":288,
			"byteOffset":291644,
			"target":34962
		},
		{
			"buffer":0,
			"byteLength":192,
			"byteOffset":291932,
			"target":34962
		},
		{
			"buffer":0,
			"byteLength":288,
			"byteOffset":292124,
			"target":34962
		},
		{
			"buffer":0,
			"byteLength":288,
			"byteOffset":292412,
			"target":34962
		},
		{
			"buffer":0,
			"byteLength":192,
			"byteOffset":292700,
			"target":34962
		},
		{
			"buffer":0,
			"byteLength":12384,
			"byteOffset":292892,
			"target":34962
		},
		{
			"buffer":0,
			"byteLength":12384,
			"byteOffset":305276,
			"target":34962
		},
		{
			"buffer":0,
			"byteLength":8256,
			"byteOffset":317660,
			"target":34962
		},
		{
			"buffer":0,
			"byteLength":8256,
			"byteOffset":325916,
			"target":34962
		},
		{
			"buffer":0,
			"byteLength":6936,
			"byteOffset":334172,
			"target":34963
		},
		{
			"buffer":0,
			"byteLength":288,
			"byteOffset":341108,
			"target":34962
		},
		{
			"buffer":0,
			"byteLength":288,
			"byteOffset":341396,
			"target":34962
		},
		{
			"buffer":0,
			"byteLength":192,
			"byteOffset":341684,
			"target":34962
		},
		{
			"buffer":0,
			"byteLength":72,
			"byteOffset":341876,
			"target":34963
		},
		{
			"buffer":0,
			"byteLength":288,
			"byteOffset":341948,
			"target":34962
		},
		{
			"buffer":0,
			"byteLength":288,
			"byteOffset":342236,
			"target":34962
		},
		{
			"buffer":0,
			"byteLength":192,
			"byteOffset":342524,
			"target":34962
		},
		{
			"buffer":0,
			"byteLength":288,
			"byteOffset":342716,
			"target":34962
		},
		{
			"buffer":0,
			"byteLength":288,
			"byteOffset":343004,
			"target":34962
		},
		{
			"buffer":0,
			"byteLength":192,
			"byteOffset":343292,
			"target":34962
		}
	],
	"samplers":[
		{
			"magFilter":9729,
			"minFilter":9987
		},
		{
			"magFilter":9728,
			"minFilter":9984
		}
	],
	"buffers":[
		{
			"byteLength":343484,
			"uri":"scene.bin"
		}
	]
}
