{
	"asset":{
		"generator":"Khronos glTF Blender I/O v5.0.21",
		"version":"2.0"
	},
	"scene":0,
	"scenes":[
		{
			"extras":{
				"isStatic":true
			},
			"name":"Scene",
			"nodes":[
				0,
				1,
				2,
				3,
				4,
				5,
				6,
				7,
				8,
				9,
				10,
				11,
				12,
				13,
				14,
				15,
				16,
				17,
				18,
				19,
				20,
				35,
				36
			]
		}
	],
	"nodes":[
		{
			"extras":{
				"isStatic":true
			},
			"mesh":0,
			"name":"Floor",
			"scale":[
				2.0199999809265137,
				1,
				2.2699999809265137
			],
			"translation":[
				9.718649864196777,
				0.011172575876116753,
				-10.897971153259277
			]
		},
		{
			"extras":{
				"isStatic":true
			},
			"mesh":1,
			"name":"Box.000",
			"translation":[
				22.54122543334961,
				1.0288560390472412,
				2.1495938301086426
			]
		},
		{
			"extras":{
				"isStatic":true
			},
			"mesh":1,
			"name":"Box.001",
			"translation":[
				-3.6796302795410156,
				1.000000238418579,
				3.6910226345062256
			]
		},
		{
			"extras":{
				"isStatic":true
			},
			"mesh":1,
			"name":"Box.002",
			"translation":[
				9.574152946472168,
				1.000000238418579,
				4.254980564117432
			]
		},
		{
			"extras":{
				"isStatic":true
			},
			"mesh":1,
			"name":"Box.003",
			"rotation":[
				0,
				0.13535714149475098,
				0,
				0.9907969236373901
			],
			"translation":[
				1.7102844715118408,
				1,
				-18.312341690063477
			]
		},
		{
			"extras":{
				"isStatic":true
			},
			"mesh":1,
			"name":"Box.004",
			"rotation":[
				0,
				-0.2230888158082962,
				0,
				0.9747981429100037
			],
			"translation":[
				23.351993560791016,
				1,
				-5.353048801422119
			]
		},
		{
			"camera":0,
			"extras":{
				"isDynamic":false
			},
			"name":"Camera",
			"translation":[
				-0.06577014923095703,
				1.5,
				9.202191352844238
			]
		},
		{
			"extras":{
				"isStatic":true
			},
			"mesh":2,
			"name":"Wall.003",
			"rotation":[
				0,
				0.7071068286895752,
				0,
				0.7071067094802856
			],
			"scale":[
				2.5599985122680664,
				1,
				1
			],
			"translation":[
				-11,
				1,
				-10.476576805114746
			]
		},
		{
			"extras":{
				"isStatic":true
			},
			"mesh":3,
			"name":"Wall.004",
			"rotation":[
				0,
				-1,
				0,
				1.6292068494294654e-07
			],
			"scale":[
				2.080000162124634,
				1,
				1
			],
			"translation":[
				9.907636642456055,
				0.9699615240097046,
				-33.72370910644531
			]
		},
		{
			"extras":{
				"isStatic":true
			},
			"mesh":4,
			"name":"Wall.001",
			"rotation":[
				0,
				0.7071068286895752,
				0,
				0.7071067094802856
			],
			"scale":[
				2.469998598098755,
				1,
				1
			],
			"translation":[
				30.80890655517578,
				1,
				-10.204086303710938
			]
		},
		{
			"extras":{
				"isStatic":true
			},
			"mesh":5,
			"name":"Wall.002",
			"rotation":[
				0,
				-1,
				0,
				1.6292068494294654e-07
			],
			"scale":[
				2.080000162124634,
				1,
				1
			],
			"translation":[
				9.907636642456055,
				0.9699615240097046,
				13.297021865844727
			]
		},
		{
			"extras":{
				"isDynamic":true
			},
			"mesh":6,
			"name":"Object_218",
			"scale":[
				0.02500000037252903,
				0.02500000037252903,
				0.02500000037252903
			],
			"translation":[
				0.25508761405944824,
				1.1427239179611206,
				-0.9443343877792358
			]
		},
		{
			"extras":{
				"isStatic":true
			},
			"mesh":7,
			"name":"Box.005",
			"translation":[
				-1.6757009029388428,
				1.000000238418579,
				3.6910226345062256
			]
		},
		{
			"extras":{
				"isStatic":true
			},
			"mesh":8,
			"name":"Box.006",
			"translation":[
				-1.6757009029388428,
				3.0075948238372803,
				3.6910226345062256
			]
		},
		{
			"extras":{
				"isStatic":true
			},
			"mesh":9,
			"name":"Box.007",
			"translation":[
				0.3292365074157715,
				3.0075948238372803,
				3.6910226345062256
			]
		},
		{
			"extras":{
				"isStatic":true
			},
			"mesh":10,
			"name":"Box.008",
			"translation":[
				0.3292365074157715,
				1.000000238418579,
				3.6910226345062256
			]
		},
		{
			"extras":{
				"isStatic":true
			},
			"mesh":11,
			"name":"Box.009",
			"translation":[
				0.3292365074157715,
				4.981745719909668,
				3.6910226345062256
			]
		},
		{
			"extras":{
				"isStatic":true
			},
			"mesh":12,
			"name":"Box.010",
			"translation":[
				0.3292365074157715,
				4.981745719909668,
				1.7356722354888916
			]
		},
		{
			"extras":{
				"isStatic":true
			},
			"mesh":13,
			"name":"Box.011",
			"translation":[
				6.6936845779418945,
				1.000000238418579,
				4.254980564117432
			]
		},
		{
			"extras":{
				"isStatic":true,
				"used":false,
				"isTrigger":true
			},
			"mesh":14,
			"name":"Box.012",
			"rotation":[
				0.40824830532073975,
				0,
				-0.40824830532073975,
				0.816496729850769
			],
			"scale":[
				0.2499999701976776,
				0.2499999701976776,
				0.2499999701976776
			],
			"translation":[
				14.621820449829102,
				1.1047210693359375,
				4.254980564117432
			]
		},
		{
			"extras":{
				"isStatic":true
			},
			"mesh":15,
			"name":"Box.013",
			"translation":[
				9.574152946472168,
				1.000000238418579,
				-15.75946044921875
			]
		},
		{
			"mesh":16,
			"name":"Cucco_body_0"
		},
		{
			"mesh":17,
			"name":"Cucco_body_1"
		},
		{
			"mesh":18,
			"name":"Cucco_body_2"
		},
		{
			"mesh":19,
			"name":"Cucco_butt_0"
		},
		{
			"mesh":20,
			"name":"Cucco_butt_1"
		},
		{
			"children":[
				24,
				25
			],
			"name":"Cucco_butt"
		},
		{
			"mesh":21,
			"name":"Cucco_eye_0"
		},
		{
			"mesh":22,
			"name":"Cucco_eye_1"
		},
		{
			"children":[
				27,
				28
			],
			"name":"Cucco_eye",
			"translation":[
				0,
				0,
				2.366309642791748
			]
		},
		{
			"children":[
				21,
				22,
				23,
				26,
				29
			],
			"name":"Cucco_body"
		},
		{
			"mesh":23,
			"name":" Feathers_0"
		},
		{
			"children":[
				31
			],
			"name":" Feathers",
			"rotation":[
				-0.001862205215729773,
				-0.6950910687446594,
				-0.017907148227095604,
				0.7186962366104126
			],
			"scale":[
				1.2704881429672241,
				1.0001428127288818,
				1.0003299713134766
			],
			"translation":[
				-0.19867977499961853,
				1.545710563659668,
				1.1377798318862915
			]
		},
		{
			"mesh":24,
			"name":"Cucco_wingspread_0"
		},
		{
			"children":[
				32,
				33
			],
			"name":"Cucco_wingspread",
			"rotation":[
				0.02339109778404236,
				0.7750793695449829,
				0.0003626865509431809,
				0.6314306855201721
			],
			"scale":[
				1,
				1.0000044107437134,
				0.7868736982345581
			],
			"translation":[
				1.024150013923645,
				-0.46547064185142517,
				0.3180898427963257
			]
		},
		{
			"children":[
				30,
				34
			],
			"name":"Root",
			"rotation":[
				-0.7648399472236633,
				0,
				0,
				0.6442203521728516
			],
			"translation":[
				0.3945428431034088,
				1.9473158121109009,
				-11.916996955871582
			]
		},
		{
			"extras":{
				"isStatic":true,
				"used":false,
				"isTrigger":true
			},
			"mesh":25,
			"name":"Box.014",
			"rotation":[
				0.40824830532073975,
				0,
				-0.40824830532073975,
				0.816496729850769
			],
			"scale":[
				0.2499999701976776,
				0.2499999701976776,
				0.2499999701976776
			],
			"translation":[
				17.72488784790039,
				1.1047210693359375,
				4.254980564117432
			]
		}
	],
	"cameras":[
		{
			"name":"Camera.001",
			"perspective":{
				"aspectRatio":1.7777777777777777,
				"yfov":1,
				"zfar":100,
				"znear":0.10000000149011612
			},
			"type":"perspective"
		}
	],
	"materials":[
		{
			"doubleSided":true,
			"extras":{
				"isStatic":true
			},
			"name":"Floor",
			"pbrMetallicRoughness":{
				"baseColorTexture":{
					"index":0
				},
				"metallicFactor":0,
				"roughnessFactor":0.5
			}
		},
		{
			"doubleSided":true,
			"name":"Box",
			"pbrMetallicRoughness":{
				"baseColorTexture":{
					"index":1
				},
				"metallicFactor":0,
				"roughnessFactor":0.5
			}
		},
		{
			"doubleSided":true,
			"name":"Wall.001",
			"pbrMetallicRoughness":{
				"baseColorTexture":{
					"index":2
				},
				"metallicFactor":0,
				"roughnessFactor":0.5
			}
		},
		{
			"doubleSided":true,
			"name":"Wall.006",
			"pbrMetallicRoughness":{
				"baseColorTexture":{
					"index":3
				},
				"metallicFactor":0,
				"roughnessFactor":0.5
			}
		},
		{
			"doubleSided":true,
			"name":"Wall.007",
			"pbrMetallicRoughness":{
				"baseColorTexture":{
					"index":4
				},
				"metallicFactor":0,
				"roughnessFactor":0.5
			}
		},
		{
			"doubleSided":true,
			"name":"Wall.008",
			"pbrMetallicRoughness":{
				"baseColorTexture":{
					"index":5
				},
				"metallicFactor":0,
				"roughnessFactor":0.5
			}
		},
		{
			"doubleSided":true,
			"name":"modelphong1.001",
			"pbrMetallicRoughness":{
				"baseColorTexture":{
					"index":6
				},
				"metallicFactor":0,
				"roughnessFactor":0.8942628502845764
			}
		},
		{
			"doubleSided":true,
			"name":"Box.001",
			"pbrMetallicRoughness":{
				"baseColorTexture":{
					"index":7
				},
				"metallicFactor":0,
				"roughnessFactor":0.5
			}
		},
		{
			"doubleSided":true,
			"name":"Box.002",
			"pbrMetallicRoughness":{
				"baseColorTexture":{
					"index":8
				},
				"metallicFactor":0,
				"roughnessFactor":0.5
			}
		},
		{
			"doubleSided":true,
			"name":"Box.003",
			"pbrMetallicRoughness":{
				"baseColorTexture":{
					"index":9
				},
				"metallicFactor":0,
				"roughnessFactor":0.5
			}
		},
		{
			"doubleSided":true,
			"name":"Box.004",
			"pbrMetallicRoughness":{
				"baseColorTexture":{
					"index":10
				},
				"metallicFactor":0,
				"roughnessFactor":0.5
			}
		},
		{
			"doubleSided":true,
			"name":"Box.005",
			"pbrMetallicRoughness":{
				"baseColorTexture":{
					"index":11
				},
				"metallicFactor":0,
				"roughnessFactor":0.5
			}
		},
		{
			"doubleSided":true,
			"name":"Box.006",
			"pbrMetallicRoughness":{
				"baseColorTexture":{
					"index":12
				},
				"metallicFactor":0,
				"roughnessFactor":0.5
			}
		},
		{
			"doubleSided":true,
			"name":"Box.007",
			"pbrMetallicRoughness":{
				"baseColorTexture":{
					"index":13
				},
				"metallicFactor":0,
				"roughnessFactor":0.5
			}
		},
		{
			"doubleSided":true,
			"name":"Box.008",
			"pbrMetallicRoughness":{
				"baseColorTexture":{
					"index":14
				},
				"metallicFactor":0,
				"roughnessFactor":0.5
			}
		},
		{
			"doubleSided":true,
			"name":"Box.009",
			"pbrMetallicRoughness":{
				"baseColorTexture":{
					"index":15
				},
				"metallicFactor":0,
				"roughnessFactor":0.5
			}
		},
		{
			"doubleSided":true,
			"name":"feet_colour",
			"pbrMetallicRoughness":{
				"baseColorFactor":[
					0.6113768219947815,
					0.3327091336250305,
					0.06917620450258255,
					1
				],
				"metallicFactor":0,
				"roughnessFactor":0.6000000238418579
			}
		},
		{
			"doubleSided":true,
			"name":"body_colour",
			"pbrMetallicRoughness":{
				"metallicFactor":0,
				"roughnessFactor":0.6000000238418579
			}
		},
		{
			"doubleSided":true,
			"name":"comb_material",
			"pbrMetallicRoughness":{
				"baseColorFactor":[
					0.45979830622673035,
					0.07651346921920776,
					0.030936311930418015,
					1
				],
				"metallicFactor":0,
				"roughnessFactor":0.6000000238418579
			}
		},
		{
			"doubleSided":true,
			"name":"tail_colour",
			"pbrMetallicRoughness":{
				"baseColorFactor":[
					0.9113926887512207,
					0.9095425605773926,
					0.912986695766449,
					1
				],
				"metallicFactor":0,
				"roughnessFactor":0.6000000238418579
			}
		},
		{
			"doubleSided":true,
			"name":"eye_colour",
			"pbrMetallicRoughness":{
				"baseColorFactor":[
					0.023650534451007843,
					0.023650534451007843,
					0.023650534451007843,
					1
				],
				"metallicFactor":0,
				"roughnessFactor":0.6000000238418579
			}
		},
		{
			"doubleSided":true,
			"name":"Material.002",
			"pbrMetallicRoughness":{
				"baseColorFactor":[
					0.0034254814963787794,
					0.023638062179088593,
					0.03310251608490944,
					1
				],
				"metallicFactor":0,
				"roughnessFactor":0.6000000238418579
			}
		},
		{
			"doubleSided":true,
			"name":"Box.010",
			"pbrMetallicRoughness":{
				"baseColorTexture":{
					"index":16
				},
				"metallicFactor":0,
				"roughnessFactor":0.5
			}
		}
	],
	"meshes":[
		{
			"name":"Floor",
			"primitives":[
				{
					"attributes":{
						"POSITION":0,
						"NORMAL":1,
						"TEXCOORD_0":2
					},
					"indices":3,
					"material":0
				}
			]
		},
		{
			"name":"Box",
			"primitives":[
				{
					"attributes":{
						"POSITION":4,
						"NORMAL":5,
						"TEXCOORD_0":6
					},
					"indices":7,
					"material":1
				}
			]
		},
		{
			"name":"Wall.001",
			"primitives":[
				{
					"attributes":{
						"POSITION":8,
						"NORMAL":9,
						"TEXCOORD_0":10
					},
					"indices":7,
					"material":2
				}
			]
		},
		{
			"name":"Wall.006",
			"primitives":[
				{
					"attributes":{
						"POSITION":11,
						"NORMAL":12,
						"TEXCOORD_0":13
					},
					"indices":7,
					"material":3
				}
			]
		},
		{
			"name":"Wall.007",
			"primitives":[
				{
					"attributes":{
						"POSITION":14,
						"NORMAL":15,
						"TEXCOORD_0":16
					},
					"indices":7,
					"material":4
				}
			]
		},
		{
			"name":"Wall.008",
			"primitives":[
				{
					"attributes":{
						"POSITION":17,
						"NORMAL":18,
						"TEXCOORD_0":19
					},
					"indices":7,
					"material":5
				}
			]
		},
		{
			"name":"model:haena_exported:Mesh_model:phong1_0.001",
			"primitives":[
				{
					"attributes":{
						"POSITION":20,
						"NORMAL":21,
						"TEXCOORD_0":22
					},
					"indices":23,
					"material":6
				}
			]
		},
		{
			"name":"Box.001",
			"primitives":[
				{
					"attributes":{
						"POSITION":24,
						"NORMAL":25,
						"TEXCOORD_0":26
					},
					"indices":7,
					"material":7
				}
			]
		},
		{
			"name":"Box.002",
			"primitives":[
				{
					"attributes":{
						"POSITION":27,
						"NORMAL":28,
						"TEXCOORD_0":29
					},
					"indices":7,
					"material":8
				}
			]
		},
		{
			"name":"Box.003",
			"primitives":[
				{
					"attributes":{
						"POSITION":30,
						"NORMAL":31,
						"TEXCOORD_0":32
					},
					"indices":7,
					"material":9
				}
			]
		},
		{
			"name":"Box.004",
			"primitives":[
				{
					"attributes":{
						"POSITION":33,
						"NORMAL":34,
						"TEXCOORD_0":35
					},
					"indices":7,
					"material":10
				}
			]
		},
		{
			"name":"Box.005",
			"primitives":[
				{
					"attributes":{
						"POSITION":36,
						"NORMAL":37,
						"TEXCOORD_0":38
					},
					"indices":7,
					"material":11
				}
			]
		},
		{
			"name":"Box.006",
			"primitives":[
				{
					"attributes":{
						"POSITION":39,
						"NORMAL":40,
						"TEXCOORD_0":41
					},
					"indices":7,
					"material":12
				}
			]
		},
		{
			"name":"Box.007",
			"primitives":[
				{
					"attributes":{
						"POSITION":42,
						"NORMAL":43,
						"TEXCOORD_0":44
					},
					"indices":7,
					"material":13
				}
			]
		},
		{
			"extras":{
				"isStatic":true
			},
			"name":"Box.008",
			"primitives":[
				{
					"attributes":{
						"POSITION":45,
						"NORMAL":46,
						"TEXCOORD_0":47
					},
					"indices":7,
					"material":14
				}
			]
		},
		{
			"name":"Box.009",
			"primitives":[
				{
					"attributes":{
						"POSITION":48,
						"NORMAL":49,
						"TEXCOORD_0":50
					},
					"indices":7,
					"material":15
				}
			]
		},
		{
			"name":"Cucco_body_0",
			"primitives":[
				{
					"attributes":{
						"POSITION":51,
						"NORMAL":52
					},
					"indices":53,
					"material":16
				}
			]
		},
		{
			"name":"Cucco_body_1",
			"primitives":[
				{
					"attributes":{
						"POSITION":54,
						"NORMAL":55
					},
					"indices":56,
					"material":17
				}
			]
		},
		{
			"name":"Cucco_body_2",
			"primitives":[
				{
					"attributes":{
						"POSITION":57,
						"NORMAL":58
					},
					"indices":59,
					"material":18
				}
			]
		},
		{
			"name":"Cucco_butt_0",
			"primitives":[
				{
					"attributes":{
						"POSITION":60,
						"NORMAL":61
					},
					"indices":62,
					"material":17
				}
			]
		},
		{
			"name":"Cucco_butt_1",
			"primitives":[
				{
					"attributes":{
						"POSITION":63,
						"NORMAL":64
					},
					"indices":65,
					"material":19
				}
			]
		},
		{
			"name":"Cucco_eye_0",
			"primitives":[
				{
					"attributes":{
						"POSITION":66,
						"NORMAL":67
					},
					"indices":68,
					"material":20
				}
			]
		},
		{
			"name":"Cucco_eye_1",
			"primitives":[
				{
					"attributes":{
						"POSITION":69,
						"NORMAL":70
					},
					"indices":71,
					"material":21
				}
			]
		},
		{
			"name":" Feathers_0",
			"primitives":[
				{
					"attributes":{
						"POSITION":72,
						"NORMAL":73
					},
					"indices":74,
					"material":17
				}
			]
		},
		{
			"name":"Cucco_wingspread_0",
			"primitives":[
				{
					"attributes":{
						"POSITION":75,
						"NORMAL":76
					},
					"indices":77,
					"material":17
				}
			]
		},
		{
			"extras":{
				"isStatic":true
			},
			"name":"Box.010",
			"primitives":[
				{
					"attributes":{
						"POSITION":78,
						"NORMAL":79,
						"TEXCOORD_0":80
					},
					"indices":7,
					"material":22
				}
			]
		}
	],
	"textures":[
		{
			"sampler":0,
			"source":0
		},
		{
			"sampler":0,
			"source":1
		},
		{
			"sampler":0,
			"source":2
		},
		{
			"sampler":0,
			"source":2
		},
		{
			"sampler":0,
			"source":2
		},
		{
			"sampler":0,
			"source":2
		},
		{
			"sampler":1,
			"source":3
		},
		{
			"sampler":0,
			"source":4
		},
		{
			"sampler":0,
			"source":4
		},
		{
			"sampler":0,
			"source":4
		},
		{
			"sampler":0,
			"source":4
		},
		{
			"sampler":0,
			"source":4
		},
		{
			"sampler":0,
			"source":4
		},
		{
			"sampler":0,
			"source":1
		},
		{
			"sampler":0,
			"source":1
		},
		{
			"sampler":0,
			"source":1
		},
		{
			"sampler":0,
			"source":1
		}
	],
	"images":[
		{
			"mimeType":"image/png",
			"name":"Floor",
			"uri":"Floor.png"
		},
		{
			"mimeType":"image/png",
			"name":"Box",
			"uri":"Box.png"
		},
		{
			"mimeType":"image/png",
			"name":"Wall",
			"uri":"Wall.png"
		},
		{
			"mimeType":"image/png",
			"name":"modelphong1_baseColor",
			"uri":"modelphong1_baseColor.png"
		},
		{
			"mimeType":"image/png",
			"name":"Box-1",
			"uri":"Box-1.png"
		}
	],
	"accessors":[
		{
			"bufferView":0,
			"componentType":5126,
			"count":4,
			"max":[
				10,
				0,
				10
			],
			"min":[
				-10,
				0,
				-10
			],
			"type":"VEC3"
		},
		{
			"bufferView":1,
			"componentType":5126,
			"count":4,
			"type":"VEC3"
		},
		{
			"bufferView":2,
			"componentType":5126,
			"count":4,
			"type":"VEC2"
		},
		{
			"bufferView":3,
			"componentType":5123,
			"count":6,
			"type":"SCALAR"
		},
		{
			"bufferView":4,
			"componentType":5126,
			"count":24,
			"max":[
				1,
				1,
				1
			],
			"min":[
				-1,
				-1,
				-1
			],
			"type":"VEC3"
		},
		{
			"bufferView":5,
			"componentType":5126,
			"count":24,
			"type":"VEC3"
		},
		{
			"bufferView":6,
			"componentType":5126,
			"count":24,
			"type":"VEC2"
		},
		{
			"bufferView":7,
			"componentType":5123,
			"count":36,
			"type":"SCALAR"
		},
		{
			"bufferView":8,
			"componentType":5126,
			"count":24,
			"max":[
				10.000003814697266,
				1,
				1
			],
			"min":[
				-9.999996185302734,
				-1,
				-1
			],
			"type":"VEC3"
		},
		{
			"bufferView":9,
			"componentType":5126,
			"count":24,
			"type":"VEC3"
		},
		{
			"bufferView":10,
			"componentType":5126,
			"count":24,
			"type":"VEC2"
		},
		{
			"bufferView":11,
			"componentType":5126,
			"count":24,
			"max":[
				10.000003814697266,
				1,
				1
			],
			"min":[
				-9.999996185302734,
				-1,
				-1
			],
			"type":"VEC3"
		},
		{
			"bufferView":12,
			"componentType":5126,
			"count":24,
			"type":"VEC3"
		},
		{
			"bufferView":13,
			"componentType":5126,
			"count":24,
			"type":"VEC2"
		},
		{
			"bufferView":14,
			"componentType":5126,
			"count":24,
			"max":[
				10.000003814697266,
				1,
				1
			],
			"min":[
				-9.999996185302734,
				-1,
				-1
			],
			"type":"VEC3"
		},
		{
			"bufferView":15,
			"componentType":5126,
			"count":24,
			"type":"VEC3"
		},
		{
			"bufferView":16,
			"componentType":5126,
			"count":24,
			"type":"VEC2"
		},
		{
			"bufferView":17,
			"componentType":5126,
			"count":24,
			"max":[
				10.000003814697266,
				1,
				1
			],
			"min":[
				-9.999996185302734,
				-1,
				-1
			],
			"type":"VEC3"
		},
		{
			"bufferView":18,
			"componentType":5126,
			"count":24,
			"type":"VEC3"
		},
		{
			"bufferView":19,
			"componentType":5126,
			"count":24,
			"type":"VEC2"
		},
		{
			"bufferView":20,
			"componentType":5126,
			"count":6387,
			"max":[
				13.088397979736328,
				61.40732955932617,
				30.388917922973633
			],
			"min":[
				-13.088397979736328,
				-0.28604963421821594,
				-28.152297973632812
			],
			"type":"VEC3"
		},
		{
			"bufferView":21,
			"componentType":5126,
			"count":6387,
			"type":"VEC3"
		},
		{
			"bufferView":22,
			"componentType":5126,
			"count":6387,
			"type":"VEC2"
		},
		{
			"bufferView":23,
			"componentType":5123,
			"count":34530,
			"type":"SCALAR"
		},
		{
			"bufferView":24,
			"componentType":5126,
			"count":24,
			"max":[
				1,
				1,
				1
			],
			"min":[
				-1,
				-1,
				-1
			],
			"type":"VEC3"
		},
		{
			"bufferView":25,
			"componentType":5126,
			"count":24,
			"type":"VEC3"
		},
		{
			"bufferView":26,
			"componentType":5126,
			"count":24,
			"type":"VEC2"
		},
		{
			"bufferView":27,
			"componentType":5126,
			"count":24,
			"max":[
				1,
				1,
				1
			],
			"min":[
				-1,
				-1,
				-1
			],
			"type":"VEC3"
		},
		{
			"bufferView":28,
			"componentType":5126,
			"count":24,
			"type":"VEC3"
		},
		{
			"bufferView":29,
			"componentType":5126,
			"count":24,
			"type":"VEC2"
		},
		{
			"bufferView":30,
			"componentType":5126,
			"count":24,
			"max":[
				1,
				1,
				1
			],
			"min":[
				-1,
				-1,
				-1
			],
			"type":"VEC3"
		},
		{
			"bufferView":31,
			"componentType":5126,
			"count":24,
			"type":"VEC3"
		},
		{
			"bufferView":32,
			"componentType":5126,
			"count":24,
			"type":"VEC2"
		},
		{
			"bufferView":33,
			"componentType":5126,
			"count":24,
			"max":[
				1,
				1,
				1
			],
			"min":[
				-1,
				-1,
				-1
			],
			"type":"VEC3"
		},
		{
			"bufferView":34,
			"componentType":5126,
			"count":24,
			"type":"VEC3"
		},
		{
			"bufferView":35,
			"componentType":5126,
			"count":24,
			"type":"VEC2"
		},
		{
			"bufferView":36,
			"componentType":5126,
			"count":24,
			"max":[
				1,
				1,
				1
			],
			"min":[
				-1,
				-1,
				-1
			],
			"type":"VEC3"
		},
		{
			"bufferView":37,
			"componentType":5126,
			"count":24,
			"type":"VEC3"
		},
		{
			"bufferView":38,
			"componentType":5126,
			"count":24,
			"type":"VEC2"
		},
		{
			"bufferView":39,
			"componentType":5126,
			"count":24,
			"max":[
				1,
				1,
				1
			],
			"min":[
				-1,
				-1,
				-1
			],
			"type":"VEC3"
		},
		{
			"bufferView":40,
			"componentType":5126,
			"count":24,
			"type":"VEC3"
		},
		{
			"bufferView":41,
			"componentType":5126,
			"count":24,
			"type":"VEC2"
		},
		{
			"bufferView":42,
			"componentType":5126,
			"count":24,
			"max":[
				1,
				1,
				1
			],
			"min":[
				-1,
				-1,
				-1
			],
			"type":"VEC3"
		},
		{
			"bufferView":43,
			"componentType":5126,
			"count":24,
			"type":"VEC3"
		},
		{
			"bufferView":44,
			"componentType":5126,
			"count":24,
			"type":"VEC2"
		},
		{
			"bufferView":45,
			"componentType":5126,
			"count":24,
			"max":[
				1,
				1,
				1
			],
			"min":[
				-1,
				-1,
				-1
			],
			"type":"VEC3"
		},
		{
			"bufferView":46,
			"componentType":5126,
			"count":24,
			"type":"VEC3"
		},
		{
			"bufferView":47,
			"componentType":5126,
			"count":24,
			"type":"VEC2"
		},
		{
			"bufferView":48,
			"componentType":5126,
			"count":24,
			"max":[
				1,
				1,
				1
			],
			"min":[
				-1,
				-1,
				-1
			],
			"type":"VEC3"
		},
		{
			"bufferView":49,
			"componentType":5126,
			"count":24,
			"type":"VEC3"
		},
		{
			"bufferView":50,
			"componentType":5126,
			"count":24,
			"type":"VEC2"
		},
		{
			"bufferView":51,
			"componentType":5126,
			"count":4513,
			"max":[
				1.0490399599075317,
				1.0848900079727173,
				1.8526599407196045
			],
			"min":[
				-1.0490399599075317,
				-1.9491000175476074,
				-2.011770009994507
			],
			"type":"VEC3"
		},
		{
			"bufferView":52,
			"componentType":5126,
			"count":4513,
			"type":"VEC3"
		},
		{
			"bufferView":53,
			"componentType":5123,
			"count":26496,
			"type":"SCALAR"
		},
		{
			"bufferView":54,
			"componentType":5126,
			"count":3181,
			"max":[
				1.3285800218582153,
				1.9024699926376343,
				2.465329885482788
			],
			"min":[
				-1.3285800218582153,
				-1.8557000160217285,
				-1.5767699480056763
			],
			"type":"VEC3"
		},
		{
			"bufferView":55,
			"componentType":5126,
			"count":3181,
			"type":"VEC3"
		},
		{
			"bufferView":56,
			"componentType":5123,
			"count":18804,
			"type":"SCALAR"
		},
		{
			"bufferView":57,
			"componentType":5126,
			"count":3058,
			"max":[
				0.7709500193595886,
				0.06609000265598297,
				3.275059938430786
			],
			"min":[
				-0.7709500193595886,
				-2.059309959411621,
				0.6103500127792358
			],
			"type":"VEC3"
		},
		{
			"bufferView":58,
			"componentType":5126,
			"count":3058,
			"type":"VEC3"
		},
		{
			"bufferView":59,
			"componentType":5123,
			"count":18000,
			"type":"SCALAR"
		},
		{
			"bufferView":60,
			"componentType":5126,
			"count":8784,
			"max":[
				1.3539199829101562,
				3.147469997406006,
				2.888010025024414
			],
			"min":[
				-1.3674099445343018,
				0.7719500064849854,
				0.0060800001956522465
			],
			"type":"VEC3"
		},
		{
			"bufferView":61,
			"componentType":5126,
			"count":8784,
			"type":"VEC3"
		},
		{
			"bufferView":62,
			"componentType":5123,
			"count":52464,
			"type":"SCALAR"
		},
		{
			"bufferView":63,
			"componentType":5126,
			"count":8966,
			"max":[
				1.0983999967575073,
				3.3595499992370605,
				3.2020299434661865
			],
			"min":[
				-1.12663996219635,
				0.8523899912834167,
				-0.033969998359680176
			],
			"type":"VEC3"
		},
		{
			"bufferView":64,
			"componentType":5126,
			"count":8966,
			"type":"VEC3"
		},
		{
			"bufferView":65,
			"componentType":5123,
			"count":53532,
			"type":"SCALAR"
		},
		{
			"bufferView":66,
			"componentType":5126,
			"count":386,
			"max":[
				0.6950500011444092,
				-0.9018700122833252,
				-0.49713000655174255
			],
			"min":[
				-0.6950500011444092,
				-1.1927200555801392,
				-0.8588600158691406
			],
			"type":"VEC3"
		},
		{
			"bufferView":67,
			"componentType":5126,
			"count":386,
			"type":"VEC3"
		},
		{
			"bufferView":68,
			"componentType":5123,
			"count":2208,
			"type":"SCALAR"
		},
		{
			"bufferView":69,
			"componentType":5126,
			"count":130,
			"max":[
				0.6700400114059448,
				-1.0301100015640259,
				-0.5347499847412109
			],
			"min":[
				-0.6700400114059448,
				-1.1919399499893188,
				-0.7879599928855896
			],
			"type":"VEC3"
		},
		{
			"bufferView":70,
			"componentType":5126,
			"count":130,
			"type":"VEC3"
		},
		{
			"bufferView":71,
			"componentType":5123,
			"count":672,
			"type":"SCALAR"
		},
		{
			"bufferView":72,
			"componentType":5126,
			"count":1284,
			"max":[
				2.2575700283050537,
				1.0629099607467651,
				0.01295000035315752
			],
			"min":[
				-5.795149803161621,
				-1.7421900033950806,
				-2.1166698932647705
			],
			"type":"VEC3"
		},
		{
			"bufferView":73,
			"componentType":5126,
			"count":1284,
			"type":"VEC3"
		},
		{
			"bufferView":74,
			"componentType":5123,
			"count":7368,
			"type":"SCALAR"
		},
		{
			"bufferView":75,
			"componentType":5126,
			"count":540,
			"max":[
				1.2656400203704834,
				0.9229999780654907,
				3.052639961242676
			],
			"min":[
				-0.3441399931907654,
				-0.4831799864768982,
				-5.427090167999268
			],
			"type":"VEC3"
		},
		{
			"bufferView":76,
			"componentType":5126,
			"count":540,
			"type":"VEC3"
		},
		{
			"bufferView":77,
			"componentType":5123,
			"count":3216,
			"type":"SCALAR"
		},
		{
			"bufferView":78,
			"componentType":5126,
			"count":24,
			"max":[
				1,
				1,
				1
			],
			"min":[
				-1,
				-1,
				-1
			],
			"type":"VEC3"
		},
		{
			"bufferView":79,
			"componentType":5126,
			"count":24,
			"type":"VEC3"
		},
		{
			"bufferView":80,
			"componentType":5126,
			"count":24,
			"type":"VEC2"
		}
	],
	"bufferViews":[
		{
			"buffer":0,
			"byteLength":48,
			"byteOffset":0,
			"target":34962
		},
		{
			"buffer":0,
			"byteLength":48,
			"byteOffset":48,
			"target":34962
		},
		{
			"buffer":0,
			"byteLength":32,
			"byteOffset":96,
			"target":34962
		},
		{
			"buffer":0,
			"byteLength":12,
			"byteOffset":128,
			"target":34963
		},
		{
			"buffer":0,
			"byteLength":288,
			"byteOffset":140,
			"target":34962
		},
		{
			"buffer":0,
			"byteLength":288,
			"byteOffset":428,
			"target":34962
		},
		{
			"buffer":0,
			"byteLength":192,
			"byteOffset":716,
			"target":34962
		},
		{
			"buffer":0,
			"byteLength":72,
			"byteOffset":908,
			"target":34963
		},
		{
			"buffer":0,
			"byteLength":288,
			"byteOffset":980,
			"target":34962
		},
		{
			"buffer":0,
			"byteLength":288,
			"byteOffset":1268,
			"target":34962
		},
		{
			"buffer":0,
			"byteLength":192,
			"byteOffset":1556,
			"target":34962
		},
		{
			"buffer":0,
			"byteLength":288,
			"byteOffset":1748,
			"target":34962
		},
		{
			"buffer":0,
			"byteLength":288,
			"byteOffset":2036,
			"target":34962
		},
		{
			"buffer":0,
			"byteLength":192,
			"byteOffset":2324,
			"target":34962
		},
		{
			"buffer":0,
			"byteLength":288,
			"byteOffset":2516,
			"target":34962
		},
		{
			"buffer":0,
			"byteLength":288,
			"byteOffset":2804,
			"target":34962
		},
		{
			"buffer":0,
			"byteLength":192,
			"byteOffset":3092,
			"target":34962
		},
		{
			"buffer":0,
			"byteLength":288,
			"byteOffset":3284,
			"target":34962
		},
		{
			"buffer":0,
			"byteLength":288,
			"byteOffset":3572,
			"target":34962
		},
		{
			"buffer":0,
			"byteLength":192,
			"byteOffset":3860,
			"target":34962
		},
		{
			"buffer":0,
			"byteLength":76644,
			"byteOffset":4052,
			"target":34962
		},
		{
			"buffer":0,
			"byteLength":76644,
			"byteOffset":80696,
			"target":34962
		},
		{
			"buffer":0,
			"byteLength":51096,
			"byteOffset":157340,
			"target":34962
		},
		{
			"buffer":0,
			"byteLength":69060,
			"byteOffset":208436,
			"target":34963
		},
		{
			"buffer":0,
			"byteLength":288,
			"byteOffset":277496,
			"target":34962
		},
		{
			"buffer":0,
			"byteLength":288,
			"byteOffset":277784,
			"target":34962
		},
		{
			"buffer":0,
			"byteLength":192,
			"byteOffset":278072,
			"target":34962
		},
		{
			"buffer":0,
			"byteLength":288,
			"byteOffset":278264,
			"target":34962
		},
		{
			"buffer":0,
			"byteLength":288,
			"byteOffset":278552,
			"target":34962
		},
		{
			"buffer":0,
			"byteLength":192,
			"byteOffset":278840,
			"target":34962
		},
		{
			"buffer":0,
			"byteLength":288,
			"byteOffset":279032,
			"target":34962
		},
		{
			"buffer":0,
			"byteLength":288,
			"byteOffset":279320,
			"target":34962
		},
		{
			"buffer":0,
			"byteLength":192,
			"byteOffset":279608,
			"target":34962
		},
		{
			"buffer":0,
			"byteLength":288,
			"byteOffset":279800,
			"target":34962
		},
		{
			"buffer":0,
			"byteLength":288,
			"byteOffset":280088,
			"target":34962
		},
		{
			"buffer":0,
			"byteLength":192,
			"byteOffset":280376,
			"target":34962
		},
		{
			"buffer":0,
			"byteLength":288,
			"byteOffset":280568,
			"target":34962
		},
		{
			"buffer":0,
			"byteLength":288,
			"byteOffset":280856,
			"target":34962
		},
		{
			"buffer":0,
			"byteLength":192,
			"byteOffset":281144,
			"target":34962
		},
		{
			"buffer":0,
			"byteLength":288,
			"byteOffset":281336,
			"target":34962
		},
		{
			"buffer":0,
			"byteLength":288,
			"byteOffset":281624,
			"target":34962
		},
		{
			"buffer":0,
			"byteLength":192,
			"byteOffset":281912,
			"target":34962
		},
		{
			"buffer":0,
			"byteLength":288,
			"byteOffset":282104,
			"target":34962
		},
		{
			"buffer":0,
			"byteLength":288,
			"byteOffset":282392,
			"target":34962
		},
		{
			"buffer":0,
			"byteLength":192,
			"byteOffset":282680,
			"target":34962
		},
		{
			"buffer":0,
			"byteLength":288,
			"byteOffset":282872,
			"target":34962
		},
		{
			"buffer":0,
			"byteLength":288,
			"byteOffset":283160,
			"target":34962
		},
		{
			"buffer":0,
			"byteLength":192,
			"byteOffset":283448,
			"target":34962
		},
		{
			"buffer":0,
			"byteLength":288,
			"byteOffset":283640,
			"target":34962
		},
		{
			"buffer":0,
			"byteLength":288,
			"byteOffset":283928,
			"target":34962
		},
		{
			"buffer":0,
			"byteLength":192,
			"byteOffset":284216,
			"target":34962
		},
		{
			"buffer":0,
			"byteLength":54156,
			"byteOffset":284408,
			"target":34962
		},
		{
			"buffer":0,
			"byteLength":54156,
			"byteOffset":338564,
			"target":34962
		},
		{
			"buffer":0,
			"byteLength":52992,
			"byteOffset":392720,
			"target":34963
		},
		{
			"buffer":0,
			"byteLength":38172,
			"byteOffset":445712,
			"target":34962
		},
		{
			"buffer":0,
			"byteLength":38172,
			"byteOffset":483884,
			"target":34962
		},
		{
			"buffer":0,
			"byteLength":37608,
			"byteOffset":522056,
			"target":34963
		},
		{
			"buffer":0,
			"byteLength":36696,
			"byteOffset":559664,
			"target":34962
		},
		{
			"buffer":0,
			"byteLength":36696,
			"byteOffset":596360,
			"target":34962
		},
		{
			"buffer":0,
			"byteLength":36000,
			"byteOffset":633056,
			"target":34963
		},
		{
			"buffer":0,
			"byteLength":105408,
			"byteOffset":669056,
			"target":34962
		},
		{
			"buffer":0,
			"byteLength":105408,
			"byteOffset":774464,
			"target":34962
		},
		{
			"buffer":0,
			"byteLength":104928,
			"byteOffset":879872,
			"target":34963
		},
		{
			"buffer":0,
			"byteLength":107592,
			"byteOffset":984800,
			"target":34962
		},
		{
			"buffer":0,
			"byteLength":107592,
			"byteOffset":1092392,
			"target":34962
		},
		{
			"buffer":0,
			"byteLength":107064,
			"byteOffset":1199984,
			"target":34963
		},
		{
			"buffer":0,
			"byteLength":4632,
			"byteOffset":1307048,
			"target":34962
		},
		{
			"buffer":0,
			"byteLength":4632,
			"byteOffset":1311680,
			"target":34962
		},
		{
			"buffer":0,
			"byteLength":4416,
			"byteOffset":1316312,
			"target":34963
		},
		{
			"buffer":0,
			"byteLength":1560,
			"byteOffset":1320728,
			"target":34962
		},
		{
			"buffer":0,
			"byteLength":1560,
			"byteOffset":1322288,
			"target":34962
		},
		{
			"buffer":0,
			"byteLength":1344,
			"byteOffset":1323848,
			"target":34963
		},
		{
			"buffer":0,
			"byteLength":15408,
			"byteOffset":1325192,
			"target":34962
		},
		{
			"buffer":0,
			"byteLength":15408,
			"byteOffset":1340600,
			"target":34962
		},
		{
			"buffer":0,
			"byteLength":14736,
			"byteOffset":1356008,
			"target":34963
		},
		{
			"buffer":0,
			"byteLength":6480,
			"byteOffset":1370744,
			"target":34962
		},
		{
			"buffer":0,
			"byteLength":6480,
			"byteOffset":1377224,
			"target":34962
		},
		{
			"buffer":0,
			"byteLength":6432,
			"byteOffset":1383704,
			"target":34963
		},
		{
			"buffer":0,
			"byteLength":288,
			"byteOffset":1390136,
			"target":34962
		},
		{
			"buffer":0,
			"byteLength":288,
			"byteOffset":1390424,
			"target":34962
		},
		{
			"buffer":0,
			"byteLength":192,
			"byteOffset":1390712,
			"target":34962
		}
	],
	"samplers":[
		{
			"magFilter":9728,
			"minFilter":9984
		},
		{
			"magFilter":9729,
			"minFilter":9987
		}
	],
	"buffers":[
		{
			"byteLength":1390904,
			"uri":"scene.bin"
		}
	]
}
