{
	"asset":{
		"generator":"Khronos glTF Blender I/O v5.0.21",
		"version":"2.0"
	},
	"extensionsUsed":[
		"KHR_lights_punctual"
	],
	"extensionsRequired":[
		"KHR_lights_punctual"
	],
	"extensions":{
		"KHR_lights_punctual":{
			"lights":[
				{
					"color":[
						1,
						1,
						1
					],
					"intensity":543.5141306588226,
					"type":"point",
					"name":"Point"
				}
			]
		}
	},
	"scene":0,
	"scenes":[
		{
			"name":"Scene",
			"nodes":[
				0,
				1,
				2,
				3,
				4,
				5,
				6,
				7,
				8,
				9,
				10,
				11,
				12,
				13,
				14,
				15,
				16,
				17,
				18,
				19,
				20,
				21,
				22,
				23,
				24,
				25,
				26,
				27,
				28,
				29,
				30,
				31,
				32,
				33,
				34
			]
		}
	],
	"nodes":[
		{
			"extras":{
				"isStatic":true
			},
			"mesh":0,
			"name":"Floor",
			"scale":[
				2.0199999809265137,
				1,
				2.2699999809265137
			],
			"translation":[
				9.718649864196777,
				0.011172575876116753,
				-10.897971153259277
			]
		},
		{
			"extras":{
				"isStatic":true
			},
			"mesh":1,
			"name":"Wall.003",
			"rotation":[
				0.7071068286895752,
				0,
				0.7071067094802856,
				0
			],
			"scale":[
				-2.399294137954712,
				-25.175626754760742,
				-1.2801600694656372
			],
			"translation":[
				-11.72103500366211,
				23.611268997192383,
				-10.580164909362793
			]
		},
		{
			"extras":{
				"isStatic":true
			},
			"mesh":2,
			"name":"Wall.002",
			"rotation":[
				0,
				-1,
				0,
				1.6292068494294654e-07
			],
			"scale":[
				2.080000162124634,
				26.142288208007812,
				1
			],
			"translation":[
				9.410706520080566,
				22.85222053527832,
				12.153101921081543
			]
		},
		{
			"extras":{
				"isStatic":true
			},
			"mesh":3,
			"name":"Floor.001",
			"scale":[
				2.0199999809265137,
				1,
				2.2699999809265137
			],
			"translation":[
				9.718649864196777,
				48.84988784790039,
				-10.897971153259277
			]
		},
		{
			"extras":{
				"isStatic":true
			},
			"mesh":4,
			"name":"Wall.004",
			"rotation":[
				0,
				-1,
				0,
				1.6292068494294654e-07
			],
			"scale":[
				2.080000162124634,
				26.167646408081055,
				1
			],
			"translation":[
				9.907636642456055,
				22.880359649658203,
				-33.72370910644531
			]
		},
		{
			"extras":{
				"isStatic":true
			},
			"mesh":5,
			"name":"Box.009",
			"rotation":[
				0,
				0.6804166436195374,
				0,
				0.732825517654419
			],
			"scale":[
				5.403844833374023,
				2.043063163757324,
				2.043063163757324
			],
			"translation":[
				22.857858657836914,
				2.2886879444122314,
				3.7704100608825684
			]
		},
		{
			"extras":{
				"isStatic":true
			},
			"mesh":6,
			"name":"Box.001",
			"translation":[
				3.1430139541625977,
				0.97402024269104,
				5.982418537139893
			]
		},
		{
			"extras":{
				"isStatic":true
			},
			"mesh":7,
			"name":"Box.002",
			"translation":[
				-5.127179145812988,
				0.934483528137207,
				0.9330015182495117
			]
		},
		{
			"extras":{
				"isStatic":true
			},
			"mesh":8,
			"name":"Box.003",
			"scale":[
				1.4560493230819702,
				1.4560493230819702,
				1.4560493230819702
			],
			"translation":[
				3.187321186065674,
				1.4610652923583984,
				-8.941841125488281
			]
		},
		{
			"mesh":9,
			"name":"kletka",
			"translation":[
				10.033812522888184,
				4.944302082061768,
				8.491520881652832
			]
		},
		{
			"extras":{
				"isStatic":true
			},
			"mesh":10,
			"name":"Box.004",
			"translation":[
				3.996678352355957,
				0.8519604206085205,
				-12.176675796508789
			]
		},
		{
			"extras":{
				"isStatic":true
			},
			"mesh":11,
			"name":"Box.005",
			"scale":[
				1.4560493230819702,
				1.4560493230819702,
				1.4560493230819702
			],
			"translation":[
				-2.067582130432129,
				1.4377174377441406,
				-12.79669189453125
			]
		},
		{
			"extras":{
				"isStatic":true
			},
			"mesh":12,
			"name":"Box.006",
			"translation":[
				-2.423339605331421,
				4.116165637969971,
				-15.145395278930664
			]
		},
		{
			"extras":{
				"isStatic":true
			},
			"mesh":13,
			"name":"Box.007",
			"scale":[
				1.4560493230819702,
				1.4560493230819702,
				1.4560493230819702
			],
			"translation":[
				-1.8909707069396973,
				1.4427474737167358,
				-15.64575481414795
			]
		},
		{
			"extras":{
				"isTrigger":true
			},
			"mesh":14,
			"name":"button",
			"rotation":[
				-0.7059217691421509,
				0,
				0,
				0.7082898616790771
			],
			"translation":[
				18.842727661132812,
				0.3625108003616333,
				-26.31914520263672
			]
		},
		{
			"extras":{
				"isStatic":true
			},
			"mesh":15,
			"name":"Box.008",
			"scale":[
				1.4560493230819702,
				1.4560493230819702,
				1.4560493230819702
			],
			"translation":[
				16.37275505065918,
				1.4041414260864258,
				-26.625852584838867
			]
		},
		{
			"extras":{
				"isStatic":true
			},
			"mesh":16,
			"name":"Box.010",
			"translation":[
				20.62129020690918,
				1.2218936681747437,
				-25.847015380859375
			]
		},
		{
			"extras":{
				"isStatic":true
			},
			"mesh":17,
			"name":"Box.011",
			"scale":[
				1.4560493230819702,
				1.4560493230819702,
				1.4560493230819702
			],
			"translation":[
				13.467473030090332,
				1.4635893106460571,
				-26.55843162536621
			]
		},
		{
			"extras":{
				"isStatic":true
			},
			"mesh":18,
			"name":"Box.012",
			"scale":[
				1.4560493230819702,
				1.4560493230819702,
				1.4560493230819702
			],
			"translation":[
				14.544367790222168,
				4.422044277191162,
				-26.55843162536621
			]
		},
		{
			"extras":{
				"isStatic":true
			},
			"mesh":19,
			"name":"Box.013",
			"translation":[
				13.648031234741211,
				0.9448800086975098,
				-24.027729034423828
			]
		},
		{
			"extras":{
				"isStatic":true
			},
			"mesh":20,
			"name":"Box.014",
			"translation":[
				18.571998596191406,
				0.9448800086975098,
				-24.223846435546875
			]
		},
		{
			"extras":{
				"isStatic":true
			},
			"mesh":21,
			"name":"Box.015",
			"scale":[
				5.403844833374023,
				2.043063163757324,
				2.043063163757324
			],
			"translation":[
				-0.08585488796234131,
				1.978968858718872,
				-19.91712760925293
			]
		},
		{
			"extras":{
				"isStatic":true
			},
			"mesh":22,
			"name":"Box.016",
			"scale":[
				5.403844833374023,
				2.043063163757324,
				2.043063163757324
			],
			"translation":[
				-4.527791500091553,
				2.191826105117798,
				7.956847667694092
			]
		},
		{
			"extras":{
				"isStatic":true
			},
			"mesh":23,
			"name":"Box.017",
			"translation":[
				22.717975616455078,
				7.8527326583862305,
				6.34315824508667
			]
		},
		{
			"extras":{
				"isStatic":true
			},
			"mesh":24,
			"name":"Box.018",
			"scale":[
				1.4560493230819702,
				1.4560493230819702,
				1.4560493230819702
			],
			"translation":[
				22.830337524414062,
				5.624102592468262,
				5.759771823883057
			]
		},
		{
			"extras":{
				"isStatic":true
			},
			"mesh":25,
			"name":"Box.019",
			"translation":[
				23.43459701538086,
				5.208776950836182,
				3.079177141189575
			]
		},
		{
			"extras":{
				"isStatic":true
			},
			"mesh":26,
			"name":"Box.020",
			"translation":[
				19.226152420043945,
				0.97402024269104,
				0.8073792457580566
			]
		},
		{
			"mesh":27,
			"name":"miza",
			"rotation":[
				-0.7215206623077393,
				0,
				0,
				0.692392885684967
			],
			"scale":[
				7.096590995788574,
				7.096590995788574,
				7.096590995788574
			],
			"translation":[
				8.059148788452148,
				2.975557327270508,
				5.479684352874756
			]
		},
		{
			"extras":{
				"isStatic":true
			},
			"mesh":28,
			"name":"Box.021",
			"translation":[
				13.636425018310547,
				0.97402024269104,
				3.62103271484375
			]
		},
		{
			"extras":{
				"isDynamic":true
			},
			"mesh":29,
			"name":"Object_218",
			"rotation":[
				0,
				-0.9984442591667175,
				0,
				0.055759258568286896
			],
			"scale":[
				0.02500000409781933,
				0.02500000037252903,
				0.02500000409781933
			],
			"translation":[
				8.758424758911133,
				3.7503626346588135,
				6.072037696838379
			]
		},
		{
			"extras":{
				"isStatic":true
			},
			"mesh":30,
			"name":"Wall.001",
			"rotation":[
				0,
				0.7071068286895752,
				0,
				0.7071067094802856
			],
			"scale":[
				0.8724853992462158,
				26.31161880493164,
				1
			],
			"translation":[
				30.80890655517578,
				22.32896614074707,
				4.771997451782227
			]
		},
		{
			"extras":{
				"isStatic":true
			},
			"mesh":31,
			"name":"Wall.005",
			"rotation":[
				0,
				0.7071068286895752,
				0,
				0.7071067094802856
			],
			"scale":[
				0.7656006217002869,
				26.31161880493164,
				1
			],
			"translation":[
				30.80890655517578,
				22.32896614074707,
				-27.404394149780273
			]
		},
		{
			"extras":{
				"isStatic":true
			},
			"mesh":32,
			"name":"Wall.006",
			"rotation":[
				0,
				0.7071068286895752,
				0,
				0.7071067094802856
			],
			"scale":[
				0.7982794046401978,
				13.946551322937012,
				1
			],
			"translation":[
				30.80890655517578,
				34.628021240234375,
				-11.927623748779297
			]
		},
		{
			"extensions":{
				"KHR_lights_punctual":{
					"light":0
				}
			},
			"name":"Point",
			"rotation":[
				-0.7071068286895752,
				0,
				0,
				0.7071068286895752
			],
			"translation":[
				0,
				4.785858631134033,
				0
			]
		},
		{
			"camera":0,
			"extras":{
				"isDynamic":false
			},
			"name":"Camera",
			"translation":[
				-0.06577014923095703,
				1.5,
				18.422653198242188
			]
		}
	],
	"cameras":[
		{
			"name":"Camera.003",
			"perspective":{
				"aspectRatio":1.7777777777777777,
				"yfov":1,
				"zfar":100,
				"znear":0.10000000149011612
			},
			"type":"perspective"
		}
	],
	"materials":[
		{
			"doubleSided":true,
			"extras":{
				"isStatic":true
			},
			"name":"Floor",
			"pbrMetallicRoughness":{
				"baseColorTexture":{
					"index":0
				},
				"metallicFactor":0,
				"roughnessFactor":0.5
			}
		},
		{
			"doubleSided":true,
			"name":"Wall.001",
			"pbrMetallicRoughness":{
				"baseColorTexture":{
					"index":1
				},
				"metallicFactor":0,
				"roughnessFactor":0.5
			}
		},
		{
			"doubleSided":true,
			"name":"Wall.008",
			"pbrMetallicRoughness":{
				"baseColorTexture":{
					"index":2
				},
				"metallicFactor":0,
				"roughnessFactor":0.5
			}
		},
		{
			"doubleSided":true,
			"extras":{
				"isStatic":true
			},
			"name":"Floor.001",
			"pbrMetallicRoughness":{
				"metallicFactor":0,
				"roughnessFactor":0.5
			}
		},
		{
			"doubleSided":true,
			"name":"Wall.006",
			"pbrMetallicRoughness":{
				"baseColorTexture":{
					"index":3
				},
				"metallicFactor":0,
				"roughnessFactor":0.5
			}
		},
		{
			"doubleSided":true,
			"name":"Box.005",
			"pbrMetallicRoughness":{
				"metallicFactor":0,
				"roughnessFactor":0.5
			}
		},
		{
			"doubleSided":true,
			"name":"Box.001",
			"pbrMetallicRoughness":{
				"metallicFactor":0,
				"roughnessFactor":0.5
			}
		},
		{
			"doubleSided":true,
			"name":"Box.002",
			"pbrMetallicRoughness":{
				"metallicFactor":0,
				"roughnessFactor":0.5
			}
		},
		{
			"doubleSided":true,
			"name":"Box.003",
			"pbrMetallicRoughness":{
				"metallicFactor":0,
				"roughnessFactor":0.5
			}
		},
		{
			"doubleSided":true,
			"name":"Material.001",
			"pbrMetallicRoughness":{
				"baseColorFactor":[
					0.800000011920929,
					0.800000011920929,
					0.800000011920929,
					1
				],
				"roughnessFactor":0.4000000059604645
			}
		},
		{
			"doubleSided":true,
			"name":"Box.004",
			"pbrMetallicRoughness":{
				"metallicFactor":0,
				"roughnessFactor":0.5
			}
		},
		{
			"doubleSided":true,
			"name":"Box.006",
			"pbrMetallicRoughness":{
				"metallicFactor":0,
				"roughnessFactor":0.5
			}
		},
		{
			"doubleSided":true,
			"name":"Box.007",
			"pbrMetallicRoughness":{
				"metallicFactor":0,
				"roughnessFactor":0.5
			}
		},
		{
			"doubleSided":true,
			"name":"Box.008",
			"pbrMetallicRoughness":{
				"metallicFactor":0,
				"roughnessFactor":0.5
			}
		},
		{
			"doubleSided":true,
			"name":"Material.002",
			"pbrMetallicRoughness":{
				"metallicFactor":0,
				"roughnessFactor":0.8434915542602539
			}
		},
		{
			"doubleSided":true,
			"name":"Box.009",
			"pbrMetallicRoughness":{
				"metallicFactor":0,
				"roughnessFactor":0.5
			}
		},
		{
			"doubleSided":true,
			"name":"Box.010",
			"pbrMetallicRoughness":{
				"metallicFactor":0,
				"roughnessFactor":0.5
			}
		},
		{
			"doubleSided":true,
			"name":"Box.011",
			"pbrMetallicRoughness":{
				"metallicFactor":0,
				"roughnessFactor":0.5
			}
		},
		{
			"doubleSided":true,
			"name":"Box.012",
			"pbrMetallicRoughness":{
				"metallicFactor":0,
				"roughnessFactor":0.5
			}
		},
		{
			"doubleSided":true,
			"name":"Box.013",
			"pbrMetallicRoughness":{
				"metallicFactor":0,
				"roughnessFactor":0.5
			}
		},
		{
			"doubleSided":true,
			"name":"Box.014",
			"pbrMetallicRoughness":{
				"metallicFactor":0,
				"roughnessFactor":0.5
			}
		},
		{
			"doubleSided":true,
			"name":"Box.015",
			"pbrMetallicRoughness":{
				"metallicFactor":0,
				"roughnessFactor":0.5
			}
		},
		{
			"doubleSided":true,
			"name":"Box.016",
			"pbrMetallicRoughness":{
				"metallicFactor":0,
				"roughnessFactor":0.5
			}
		},
		{
			"doubleSided":true,
			"name":"Box.017",
			"pbrMetallicRoughness":{
				"metallicFactor":0,
				"roughnessFactor":0.5
			}
		},
		{
			"doubleSided":true,
			"name":"Box.018",
			"pbrMetallicRoughness":{
				"metallicFactor":0,
				"roughnessFactor":0.5
			}
		},
		{
			"doubleSided":true,
			"name":"Box.019",
			"pbrMetallicRoughness":{
				"metallicFactor":0,
				"roughnessFactor":0.5
			}
		},
		{
			"doubleSided":true,
			"name":"Box.020",
			"pbrMetallicRoughness":{
				"metallicFactor":0,
				"roughnessFactor":0.5
			}
		},
		{
			"doubleSided":true,
			"name":"Wooden_Bench_ukiqbajbw.002",
			"pbrMetallicRoughness":{
				"baseColorTexture":{
					"index":4
				},
				"metallicFactor":0,
				"metallicRoughnessTexture":{
					"index":5
				}
			}
		},
		{
			"doubleSided":true,
			"name":"Box.022",
			"pbrMetallicRoughness":{
				"metallicFactor":0,
				"roughnessFactor":0.5
			}
		},
		{
			"doubleSided":true,
			"name":"modelphong1.001",
			"pbrMetallicRoughness":{
				"baseColorTexture":{
					"index":6
				},
				"metallicFactor":0,
				"roughnessFactor":0.8942628502845764
			}
		},
		{
			"doubleSided":true,
			"name":"Wall.007",
			"pbrMetallicRoughness":{
				"baseColorTexture":{
					"index":7
				},
				"metallicFactor":0,
				"roughnessFactor":0.5
			}
		},
		{
			"doubleSided":true,
			"name":"Wall.002",
			"pbrMetallicRoughness":{
				"baseColorTexture":{
					"index":8
				},
				"metallicFactor":0,
				"roughnessFactor":0.5
			}
		},
		{
			"doubleSided":true,
			"name":"Wall.003",
			"pbrMetallicRoughness":{
				"baseColorTexture":{
					"index":9
				},
				"metallicFactor":0,
				"roughnessFactor":0.5
			}
		}
	],
	"meshes":[
		{
			"name":"Floor",
			"primitives":[
				{
					"attributes":{
						"POSITION":0,
						"NORMAL":1,
						"TEXCOORD_0":2
					},
					"indices":3,
					"material":0
				}
			]
		},
		{
			"name":"Wall.001",
			"primitives":[
				{
					"attributes":{
						"POSITION":4,
						"NORMAL":5,
						"TEXCOORD_0":6
					},
					"indices":7,
					"material":1
				}
			]
		},
		{
			"name":"Wall.008",
			"primitives":[
				{
					"attributes":{
						"POSITION":8,
						"NORMAL":9,
						"TEXCOORD_0":10
					},
					"indices":7,
					"material":2
				}
			]
		},
		{
			"name":"Floor.001",
			"primitives":[
				{
					"attributes":{
						"POSITION":11,
						"NORMAL":12,
						"TEXCOORD_0":13
					},
					"indices":3,
					"material":3
				}
			]
		},
		{
			"name":"Wall.006",
			"primitives":[
				{
					"attributes":{
						"POSITION":14,
						"NORMAL":15,
						"TEXCOORD_0":16
					},
					"indices":7,
					"material":4
				}
			]
		},
		{
			"name":"Box.005",
			"primitives":[
				{
					"attributes":{
						"POSITION":17,
						"NORMAL":18,
						"TEXCOORD_0":19
					},
					"indices":7,
					"material":5
				}
			]
		},
		{
			"name":"Box.001",
			"primitives":[
				{
					"attributes":{
						"POSITION":20,
						"NORMAL":21,
						"TEXCOORD_0":22
					},
					"indices":7,
					"material":6
				}
			]
		},
		{
			"name":"Box.002",
			"primitives":[
				{
					"attributes":{
						"POSITION":23,
						"NORMAL":24,
						"TEXCOORD_0":25
					},
					"indices":7,
					"material":7
				}
			]
		},
		{
			"name":"Box.003",
			"primitives":[
				{
					"attributes":{
						"POSITION":26,
						"NORMAL":27,
						"TEXCOORD_0":28
					},
					"indices":7,
					"material":8
				}
			]
		},
		{
			"name":"Object_0",
			"primitives":[
				{
					"attributes":{
						"POSITION":29,
						"NORMAL":30,
						"TEXCOORD_0":31
					},
					"indices":32,
					"material":9
				}
			]
		},
		{
			"name":"Box.004",
			"primitives":[
				{
					"attributes":{
						"POSITION":33,
						"NORMAL":34,
						"TEXCOORD_0":35
					},
					"indices":7,
					"material":10
				}
			]
		},
		{
			"name":"Box.006",
			"primitives":[
				{
					"attributes":{
						"POSITION":36,
						"NORMAL":37,
						"TEXCOORD_0":38
					},
					"indices":7,
					"material":11
				}
			]
		},
		{
			"name":"Box.007",
			"primitives":[
				{
					"attributes":{
						"POSITION":39,
						"NORMAL":40,
						"TEXCOORD_0":41
					},
					"indices":7,
					"material":12
				}
			]
		},
		{
			"name":"Box.008",
			"primitives":[
				{
					"attributes":{
						"POSITION":42,
						"NORMAL":43,
						"TEXCOORD_0":44
					},
					"indices":7,
					"material":13
				}
			]
		},
		{
			"name":"Object_0.001",
			"primitives":[
				{
					"attributes":{
						"POSITION":45,
						"NORMAL":46,
						"TEXCOORD_0":47
					},
					"indices":48,
					"material":14
				}
			]
		},
		{
			"name":"Box.009",
			"primitives":[
				{
					"attributes":{
						"POSITION":49,
						"NORMAL":50,
						"TEXCOORD_0":51
					},
					"indices":7,
					"material":15
				}
			]
		},
		{
			"name":"Box.010",
			"primitives":[
				{
					"attributes":{
						"POSITION":52,
						"NORMAL":53,
						"TEXCOORD_0":54
					},
					"indices":7,
					"material":16
				}
			]
		},
		{
			"name":"Box.011",
			"primitives":[
				{
					"attributes":{
						"POSITION":55,
						"NORMAL":56,
						"TEXCOORD_0":57
					},
					"indices":7,
					"material":17
				}
			]
		},
		{
			"name":"Box.012",
			"primitives":[
				{
					"attributes":{
						"POSITION":58,
						"NORMAL":59,
						"TEXCOORD_0":60
					},
					"indices":7,
					"material":18
				}
			]
		},
		{
			"name":"Box.013",
			"primitives":[
				{
					"attributes":{
						"POSITION":61,
						"NORMAL":62,
						"TEXCOORD_0":63
					},
					"indices":7,
					"material":19
				}
			]
		},
		{
			"name":"Box.014",
			"primitives":[
				{
					"attributes":{
						"POSITION":64,
						"NORMAL":65,
						"TEXCOORD_0":66
					},
					"indices":7,
					"material":20
				}
			]
		},
		{
			"name":"Box.015",
			"primitives":[
				{
					"attributes":{
						"POSITION":67,
						"NORMAL":68,
						"TEXCOORD_0":69
					},
					"indices":7,
					"material":21
				}
			]
		},
		{
			"name":"Box.016",
			"primitives":[
				{
					"attributes":{
						"POSITION":70,
						"NORMAL":71,
						"TEXCOORD_0":72
					},
					"indices":7,
					"material":22
				}
			]
		},
		{
			"name":"Box.017",
			"primitives":[
				{
					"attributes":{
						"POSITION":73,
						"NORMAL":74,
						"TEXCOORD_0":75
					},
					"indices":7,
					"material":23
				}
			]
		},
		{
			"name":"Box.018",
			"primitives":[
				{
					"attributes":{
						"POSITION":76,
						"NORMAL":77,
						"TEXCOORD_0":78
					},
					"indices":7,
					"material":24
				}
			]
		},
		{
			"name":"Box.019",
			"primitives":[
				{
					"attributes":{
						"POSITION":79,
						"NORMAL":80,
						"TEXCOORD_0":81
					},
					"indices":7,
					"material":25
				}
			]
		},
		{
			"name":"Box.020",
			"primitives":[
				{
					"attributes":{
						"POSITION":82,
						"NORMAL":83,
						"TEXCOORD_0":84
					},
					"indices":7,
					"material":26
				}
			]
		},
		{
			"name":"miza",
			"primitives":[
				{
					"attributes":{
						"POSITION":85,
						"NORMAL":86,
						"TEXCOORD_0":87,
						"TEXCOORD_1":88
					},
					"indices":89,
					"material":27
				}
			]
		},
		{
			"name":"Box.022",
			"primitives":[
				{
					"attributes":{
						"POSITION":90,
						"NORMAL":91,
						"TEXCOORD_0":92
					},
					"indices":7,
					"material":28
				}
			]
		},
		{
			"name":"model:haena_exported:Mesh_model:phong1_0.001",
			"primitives":[
				{
					"attributes":{
						"POSITION":93,
						"NORMAL":94,
						"TEXCOORD_0":95
					},
					"indices":96,
					"material":29
				}
			]
		},
		{
			"name":"Wall.007",
			"primitives":[
				{
					"attributes":{
						"POSITION":97,
						"NORMAL":98,
						"TEXCOORD_0":99
					},
					"indices":7,
					"material":30
				}
			]
		},
		{
			"name":"Wall.002",
			"primitives":[
				{
					"attributes":{
						"POSITION":100,
						"NORMAL":101,
						"TEXCOORD_0":102
					},
					"indices":7,
					"material":31
				}
			]
		},
		{
			"name":"Wall.003",
			"primitives":[
				{
					"attributes":{
						"POSITION":103,
						"NORMAL":104,
						"TEXCOORD_0":105
					},
					"indices":7,
					"material":32
				}
			]
		}
	],
	"textures":[
		{
			"sampler":0,
			"source":0
		},
		{
			"sampler":0,
			"source":1
		},
		{
			"sampler":0,
			"source":1
		},
		{
			"sampler":0,
			"source":1
		},
		{
			"sampler":1,
			"source":2
		},
		{
			"sampler":1,
			"source":3
		},
		{
			"sampler":1,
			"source":4
		},
		{
			"sampler":0,
			"source":1
		},
		{
			"sampler":0,
			"source":1
		},
		{
			"sampler":0,
			"source":1
		}
	],
	"images":[
		{
			"mimeType":"image/png",
			"name":"Floor",
			"uri":"Floor.png"
		},
		{
			"mimeType":"image/png",
			"name":"Wall",
			"uri":"Wall.png"
		},
		{
			"mimeType":"image/jpeg",
			"name":"Wooden_Bench_ukiqbajbw.002_baseColor",
			"uri":"Wooden_Bench_ukiqbajbw.002_baseColor.jpg"
		},
		{
			"mimeType":"image/png",
			"name":"Wooden_Bench_ukiqbajbw.002_metallicRoughness",
			"uri":"Wooden_Bench_ukiqbajbw.002_metallicRoughness.png"
		},
		{
			"mimeType":"image/png",
			"name":"modelphong1_baseColor",
			"uri":"modelphong1_baseColor.png"
		}
	],
	"accessors":[
		{
			"bufferView":0,
			"componentType":5126,
			"count":4,
			"max":[
				10,
				0,
				10
			],
			"min":[
				-10,
				0,
				-10
			],
			"type":"VEC3"
		},
		{
			"bufferView":1,
			"componentType":5126,
			"count":4,
			"type":"VEC3"
		},
		{
			"bufferView":2,
			"componentType":5126,
			"count":4,
			"type":"VEC2"
		},
		{
			"bufferView":3,
			"componentType":5123,
			"count":6,
			"type":"SCALAR"
		},
		{
			"bufferView":4,
			"componentType":5126,
			"count":24,
			"max":[
				10.000003814697266,
				1,
				1
			],
			"min":[
				-9.999996185302734,
				-1,
				-1
			],
			"type":"VEC3"
		},
		{
			"bufferView":5,
			"componentType":5126,
			"count":24,
			"type":"VEC3"
		},
		{
			"bufferView":6,
			"componentType":5126,
			"count":24,
			"type":"VEC2"
		},
		{
			"bufferView":7,
			"componentType":5123,
			"count":36,
			"type":"SCALAR"
		},
		{
			"bufferView":8,
			"componentType":5126,
			"count":24,
			"max":[
				10.000003814697266,
				1,
				1
			],
			"min":[
				-9.999996185302734,
				-1,
				-1
			],
			"type":"VEC3"
		},
		{
			"bufferView":9,
			"componentType":5126,
			"count":24,
			"type":"VEC3"
		},
		{
			"bufferView":10,
			"componentType":5126,
			"count":24,
			"type":"VEC2"
		},
		{
			"bufferView":11,
			"componentType":5126,
			"count":4,
			"max":[
				10,
				0,
				10
			],
			"min":[
				-10,
				0,
				-10
			],
			"type":"VEC3"
		},
		{
			"bufferView":12,
			"componentType":5126,
			"count":4,
			"type":"VEC3"
		},
		{
			"bufferView":13,
			"componentType":5126,
			"count":4,
			"type":"VEC2"
		},
		{
			"bufferView":14,
			"componentType":5126,
			"count":24,
			"max":[
				10.000003814697266,
				1,
				1
			],
			"min":[
				-9.999996185302734,
				-1,
				-1
			],
			"type":"VEC3"
		},
		{
			"bufferView":15,
			"componentType":5126,
			"count":24,
			"type":"VEC3"
		},
		{
			"bufferView":16,
			"componentType":5126,
			"count":24,
			"type":"VEC2"
		},
		{
			"bufferView":17,
			"componentType":5126,
			"count":24,
			"max":[
				1,
				1,
				1
			],
			"min":[
				-1,
				-1,
				-1
			],
			"type":"VEC3"
		},
		{
			"bufferView":18,
			"componentType":5126,
			"count":24,
			"type":"VEC3"
		},
		{
			"bufferView":19,
			"componentType":5126,
			"count":24,
			"type":"VEC2"
		},
		{
			"bufferView":20,
			"componentType":5126,
			"count":24,
			"max":[
				1,
				1,
				1
			],
			"min":[
				-1,
				-1,
				-1
			],
			"type":"VEC3"
		},
		{
			"bufferView":21,
			"componentType":5126,
			"count":24,
			"type":"VEC3"
		},
		{
			"bufferView":22,
			"componentType":5126,
			"count":24,
			"type":"VEC2"
		},
		{
			"bufferView":23,
			"componentType":5126,
			"count":24,
			"max":[
				1,
				1,
				1
			],
			"min":[
				-1,
				-1,
				-1
			],
			"type":"VEC3"
		},
		{
			"bufferView":24,
			"componentType":5126,
			"count":24,
			"type":"VEC3"
		},
		{
			"bufferView":25,
			"componentType":5126,
			"count":24,
			"type":"VEC2"
		},
		{
			"bufferView":26,
			"componentType":5126,
			"count":24,
			"max":[
				1,
				1,
				1
			],
			"min":[
				-1,
				-1,
				-1
			],
			"type":"VEC3"
		},
		{
			"bufferView":27,
			"componentType":5126,
			"count":24,
			"type":"VEC3"
		},
		{
			"bufferView":28,
			"componentType":5126,
			"count":24,
			"type":"VEC2"
		},
		{
			"bufferView":29,
			"componentType":5126,
			"count":7888,
			"max":[
				0.8123477101325989,
				1.3950493335723877,
				0.8495829701423645
			],
			"min":[
				-1.242652416229248,
				-0.6599507331848145,
				-1.2054170370101929
			],
			"type":"VEC3"
		},
		{
			"bufferView":30,
			"componentType":5126,
			"count":7888,
			"type":"VEC3"
		},
		{
			"bufferView":31,
			"componentType":5126,
			"count":7888,
			"type":"VEC2"
		},
		{
			"bufferView":32,
			"componentType":5123,
			"count":12768,
			"type":"SCALAR"
		},
		{
			"bufferView":33,
			"componentType":5126,
			"count":24,
			"max":[
				1,
				1,
				1
			],
			"min":[
				-1,
				-1,
				-1
			],
			"type":"VEC3"
		},
		{
			"bufferView":34,
			"componentType":5126,
			"count":24,
			"type":"VEC3"
		},
		{
			"bufferView":35,
			"componentType":5126,
			"count":24,
			"type":"VEC2"
		},
		{
			"bufferView":36,
			"componentType":5126,
			"count":24,
			"max":[
				1,
				1,
				1
			],
			"min":[
				-1,
				-1,
				-1
			],
			"type":"VEC3"
		},
		{
			"bufferView":37,
			"componentType":5126,
			"count":24,
			"type":"VEC3"
		},
		{
			"bufferView":38,
			"componentType":5126,
			"count":24,
			"type":"VEC2"
		},
		{
			"bufferView":39,
			"componentType":5126,
			"count":24,
			"max":[
				1,
				1,
				1
			],
			"min":[
				-1,
				-1,
				-1
			],
			"type":"VEC3"
		},
		{
			"bufferView":40,
			"componentType":5126,
			"count":24,
			"type":"VEC3"
		},
		{
			"bufferView":41,
			"componentType":5126,
			"count":24,
			"type":"VEC2"
		},
		{
			"bufferView":42,
			"componentType":5126,
			"count":24,
			"max":[
				1,
				1,
				1
			],
			"min":[
				-1,
				-1,
				-1
			],
			"type":"VEC3"
		},
		{
			"bufferView":43,
			"componentType":5126,
			"count":24,
			"type":"VEC3"
		},
		{
			"bufferView":44,
			"componentType":5126,
			"count":24,
			"type":"VEC2"
		},
		{
			"bufferView":45,
			"componentType":5126,
			"count":308,
			"max":[
				0.6412249803543091,
				0.6228929758071899,
				0.06895799934864044
			],
			"min":[
				-0.6383230090141296,
				-0.6265469789505005,
				-0.21330100297927856
			],
			"type":"VEC3"
		},
		{
			"bufferView":46,
			"componentType":5126,
			"count":308,
			"type":"VEC3"
		},
		{
			"bufferView":47,
			"componentType":5126,
			"count":308,
			"type":"VEC2"
		},
		{
			"bufferView":48,
			"componentType":5123,
			"count":546,
			"type":"SCALAR"
		},
		{
			"bufferView":49,
			"componentType":5126,
			"count":24,
			"max":[
				1,
				1,
				1
			],
			"min":[
				-1,
				-1,
				-1
			],
			"type":"VEC3"
		},
		{
			"bufferView":50,
			"componentType":5126,
			"count":24,
			"type":"VEC3"
		},
		{
			"bufferView":51,
			"componentType":5126,
			"count":24,
			"type":"VEC2"
		},
		{
			"bufferView":52,
			"componentType":5126,
			"count":24,
			"max":[
				1,
				1,
				1
			],
			"min":[
				-1,
				-1,
				-1
			],
			"type":"VEC3"
		},
		{
			"bufferView":53,
			"componentType":5126,
			"count":24,
			"type":"VEC3"
		},
		{
			"bufferView":54,
			"componentType":5126,
			"count":24,
			"type":"VEC2"
		},
		{
			"bufferView":55,
			"componentType":5126,
			"count":24,
			"max":[
				1,
				1,
				1
			],
			"min":[
				-1,
				-1,
				-1
			],
			"type":"VEC3"
		},
		{
			"bufferView":56,
			"componentType":5126,
			"count":24,
			"type":"VEC3"
		},
		{
			"bufferView":57,
			"componentType":5126,
			"count":24,
			"type":"VEC2"
		},
		{
			"bufferView":58,
			"componentType":5126,
			"count":24,
			"max":[
				1,
				1,
				1
			],
			"min":[
				-1,
				-1,
				-1
			],
			"type":"VEC3"
		},
		{
			"bufferView":59,
			"componentType":5126,
			"count":24,
			"type":"VEC3"
		},
		{
			"bufferView":60,
			"componentType":5126,
			"count":24,
			"type":"VEC2"
		},
		{
			"bufferView":61,
			"componentType":5126,
			"count":24,
			"max":[
				1,
				1,
				1
			],
			"min":[
				-1,
				-1,
				-1
			],
			"type":"VEC3"
		},
		{
			"bufferView":62,
			"componentType":5126,
			"count":24,
			"type":"VEC3"
		},
		{
			"bufferView":63,
			"componentType":5126,
			"count":24,
			"type":"VEC2"
		},
		{
			"bufferView":64,
			"componentType":5126,
			"count":24,
			"max":[
				1,
				1,
				1
			],
			"min":[
				-1,
				-1,
				-1
			],
			"type":"VEC3"
		},
		{
			"bufferView":65,
			"componentType":5126,
			"count":24,
			"type":"VEC3"
		},
		{
			"bufferView":66,
			"componentType":5126,
			"count":24,
			"type":"VEC2"
		},
		{
			"bufferView":67,
			"componentType":5126,
			"count":24,
			"max":[
				1,
				1,
				1
			],
			"min":[
				-1,
				-1,
				-1
			],
			"type":"VEC3"
		},
		{
			"bufferView":68,
			"componentType":5126,
			"count":24,
			"type":"VEC3"
		},
		{
			"bufferView":69,
			"componentType":5126,
			"count":24,
			"type":"VEC2"
		},
		{
			"bufferView":70,
			"componentType":5126,
			"count":24,
			"max":[
				1,
				1,
				1
			],
			"min":[
				-1,
				-1,
				-1
			],
			"type":"VEC3"
		},
		{
			"bufferView":71,
			"componentType":5126,
			"count":24,
			"type":"VEC3"
		},
		{
			"bufferView":72,
			"componentType":5126,
			"count":24,
			"type":"VEC2"
		},
		{
			"bufferView":73,
			"componentType":5126,
			"count":24,
			"max":[
				1,
				1,
				1
			],
			"min":[
				-1,
				-1,
				-1
			],
			"type":"VEC3"
		},
		{
			"bufferView":74,
			"componentType":5126,
			"count":24,
			"type":"VEC3"
		},
		{
			"bufferView":75,
			"componentType":5126,
			"count":24,
			"type":"VEC2"
		},
		{
			"bufferView":76,
			"componentType":5126,
			"count":24,
			"max":[
				1,
				1,
				1
			],
			"min":[
				-1,
				-1,
				-1
			],
			"type":"VEC3"
		},
		{
			"bufferView":77,
			"componentType":5126,
			"count":24,
			"type":"VEC3"
		},
		{
			"bufferView":78,
			"componentType":5126,
			"count":24,
			"type":"VEC2"
		},
		{
			"bufferView":79,
			"componentType":5126,
			"count":24,
			"max":[
				1,
				1,
				1
			],
			"min":[
				-1,
				-1,
				-1
			],
			"type":"VEC3"
		},
		{
			"bufferView":80,
			"componentType":5126,
			"count":24,
			"type":"VEC3"
		},
		{
			"bufferView":81,
			"componentType":5126,
			"count":24,
			"type":"VEC2"
		},
		{
			"bufferView":82,
			"componentType":5126,
			"count":24,
			"max":[
				1,
				1,
				1
			],
			"min":[
				-1,
				-1,
				-1
			],
			"type":"VEC3"
		},
		{
			"bufferView":83,
			"componentType":5126,
			"count":24,
			"type":"VEC3"
		},
		{
			"bufferView":84,
			"componentType":5126,
			"count":24,
			"type":"VEC2"
		},
		{
			"bufferView":85,
			"componentType":5126,
			"count":1032,
			"max":[
				0.599179744720459,
				0.760715901851654,
				0.10729467123746872
			],
			"min":[
				-0.08603453636169434,
				-0.6673235297203064,
				-0.48131412267684937
			],
			"type":"VEC3"
		},
		{
			"bufferView":86,
			"componentType":5126,
			"count":1032,
			"type":"VEC3"
		},
		{
			"bufferView":87,
			"componentType":5126,
			"count":1032,
			"type":"VEC2"
		},
		{
			"bufferView":88,
			"componentType":5126,
			"count":1032,
			"type":"VEC2"
		},
		{
			"bufferView":89,
			"componentType":5123,
			"count":3468,
			"type":"SCALAR"
		},
		{
			"bufferView":90,
			"componentType":5126,
			"count":24,
			"max":[
				1,
				1,
				1
			],
			"min":[
				-1,
				-1,
				-1
			],
			"type":"VEC3"
		},
		{
			"bufferView":91,
			"componentType":5126,
			"count":24,
			"type":"VEC3"
		},
		{
			"bufferView":92,
			"componentType":5126,
			"count":24,
			"type":"VEC2"
		},
		{
			"bufferView":93,
			"componentType":5126,
			"count":6387,
			"max":[
				13.088397979736328,
				61.40732955932617,
				30.388917922973633
			],
			"min":[
				-13.088397979736328,
				-0.28604963421821594,
				-28.152297973632812
			],
			"type":"VEC3"
		},
		{
			"bufferView":94,
			"componentType":5126,
			"count":6387,
			"type":"VEC3"
		},
		{
			"bufferView":95,
			"componentType":5126,
			"count":6387,
			"type":"VEC2"
		},
		{
			"bufferView":96,
			"componentType":5123,
			"count":34530,
			"type":"SCALAR"
		},
		{
			"bufferView":97,
			"componentType":5126,
			"count":24,
			"max":[
				10.000003814697266,
				1,
				1
			],
			"min":[
				-9.999996185302734,
				-1,
				-1
			],
			"type":"VEC3"
		},
		{
			"bufferView":98,
			"componentType":5126,
			"count":24,
			"type":"VEC3"
		},
		{
			"bufferView":99,
			"componentType":5126,
			"count":24,
			"type":"VEC2"
		},
		{
			"bufferView":100,
			"componentType":5126,
			"count":24,
			"max":[
				10.000003814697266,
				1,
				1
			],
			"min":[
				-9.999996185302734,
				-1,
				-1
			],
			"type":"VEC3"
		},
		{
			"bufferView":101,
			"componentType":5126,
			"count":24,
			"type":"VEC3"
		},
		{
			"bufferView":102,
			"componentType":5126,
			"count":24,
			"type":"VEC2"
		},
		{
			"bufferView":103,
			"componentType":5126,
			"count":24,
			"max":[
				10.000003814697266,
				1,
				1
			],
			"min":[
				-9.999996185302734,
				-1,
				-1
			],
			"type":"VEC3"
		},
		{
			"bufferView":104,
			"componentType":5126,
			"count":24,
			"type":"VEC3"
		},
		{
			"bufferView":105,
			"componentType":5126,
			"count":24,
			"type":"VEC2"
		}
	],
	"bufferViews":[
		{
			"buffer":0,
			"byteLength":48,
			"byteOffset":0,
			"target":34962
		},
		{
			"buffer":0,
			"byteLength":48,
			"byteOffset":48,
			"target":34962
		},
		{
			"buffer":0,
			"byteLength":32,
			"byteOffset":96,
			"target":34962
		},
		{
			"buffer":0,
			"byteLength":12,
			"byteOffset":128,
			"target":34963
		},
		{
			"buffer":0,
			"byteLength":288,
			"byteOffset":140,
			"target":34962
		},
		{
			"buffer":0,
			"byteLength":288,
			"byteOffset":428,
			"target":34962
		},
		{
			"buffer":0,
			"byteLength":192,
			"byteOffset":716,
			"target":34962
		},
		{
			"buffer":0,
			"byteLength":72,
			"byteOffset":908,
			"target":34963
		},
		{
			"buffer":0,
			"byteLength":288,
			"byteOffset":980,
			"target":34962
		},
		{
			"buffer":0,
			"byteLength":288,
			"byteOffset":1268,
			"target":34962
		},
		{
			"buffer":0,
			"byteLength":192,
			"byteOffset":1556,
			"target":34962
		},
		{
			"buffer":0,
			"byteLength":48,
			"byteOffset":1748,
			"target":34962
		},
		{
			"buffer":0,
			"byteLength":48,
			"byteOffset":1796,
			"target":34962
		},
		{
			"buffer":0,
			"byteLength":32,
			"byteOffset":1844,
			"target":34962
		},
		{
			"buffer":0,
			"byteLength":288,
			"byteOffset":1876,
			"target":34962
		},
		{
			"buffer":0,
			"byteLength":288,
			"byteOffset":2164,
			"target":34962
		},
		{
			"buffer":0,
			"byteLength":192,
			"byteOffset":2452,
			"target":34962
		},
		{
			"buffer":0,
			"byteLength":288,
			"byteOffset":2644,
			"target":34962
		},
		{
			"buffer":0,
			"byteLength":288,
			"byteOffset":2932,
			"target":34962
		},
		{
			"buffer":0,
			"byteLength":192,
			"byteOffset":3220,
			"target":34962
		},
		{
			"buffer":0,
			"byteLength":288,
			"byteOffset":3412,
			"target":34962
		},
		{
			"buffer":0,
			"byteLength":288,
			"byteOffset":3700,
			"target":34962
		},
		{
			"buffer":0,
			"byteLength":192,
			"byteOffset":3988,
			"target":34962
		},
		{
			"buffer":0,
			"byteLength":288,
			"byteOffset":4180,
			"target":34962
		},
		{
			"buffer":0,
			"byteLength":288,
			"byteOffset":4468,
			"target":34962
		},
		{
			"buffer":0,
			"byteLength":192,
			"byteOffset":4756,
			"target":34962
		},
		{
			"buffer":0,
			"byteLength":288,
			"byteOffset":4948,
			"target":34962
		},
		{
			"buffer":0,
			"byteLength":288,
			"byteOffset":5236,
			"target":34962
		},
		{
			"buffer":0,
			"byteLength":192,
			"byteOffset":5524,
			"target":34962
		},
		{
			"buffer":0,
			"byteLength":94656,
			"byteOffset":5716,
			"target":34962
		},
		{
			"buffer":0,
			"byteLength":94656,
			"byteOffset":100372,
			"target":34962
		},
		{
			"buffer":0,
			"byteLength":63104,
			"byteOffset":195028,
			"target":34962
		},
		{
			"buffer":0,
			"byteLength":25536,
			"byteOffset":258132,
			"target":34963
		},
		{
			"buffer":0,
			"byteLength":288,
			"byteOffset":283668,
			"target":34962
		},
		{
			"buffer":0,
			"byteLength":288,
			"byteOffset":283956,
			"target":34962
		},
		{
			"buffer":0,
			"byteLength":192,
			"byteOffset":284244,
			"target":34962
		},
		{
			"buffer":0,
			"byteLength":288,
			"byteOffset":284436,
			"target":34962
		},
		{
			"buffer":0,
			"byteLength":288,
			"byteOffset":284724,
			"target":34962
		},
		{
			"buffer":0,
			"byteLength":192,
			"byteOffset":285012,
			"target":34962
		},
		{
			"buffer":0,
			"byteLength":288,
			"byteOffset":285204,
			"target":34962
		},
		{
			"buffer":0,
			"byteLength":288,
			"byteOffset":285492,
			"target":34962
		},
		{
			"buffer":0,
			"byteLength":192,
			"byteOffset":285780,
			"target":34962
		},
		{
			"buffer":0,
			"byteLength":288,
			"byteOffset":285972,
			"target":34962
		},
		{
			"buffer":0,
			"byteLength":288,
			"byteOffset":286260,
			"target":34962
		},
		{
			"buffer":0,
			"byteLength":192,
			"byteOffset":286548,
			"target":34962
		},
		{
			"buffer":0,
			"byteLength":3696,
			"byteOffset":286740,
			"target":34962
		},
		{
			"buffer":0,
			"byteLength":3696,
			"byteOffset":290436,
			"target":34962
		},
		{
			"buffer":0,
			"byteLength":2464,
			"byteOffset":294132,
			"target":34962
		},
		{
			"buffer":0,
			"byteLength":1092,
			"byteOffset":296596,
			"target":34963
		},
		{
			"buffer":0,
			"byteLength":288,
			"byteOffset":297688,
			"target":34962
		},
		{
			"buffer":0,
			"byteLength":288,
			"byteOffset":297976,
			"target":34962
		},
		{
			"buffer":0,
			"byteLength":192,
			"byteOffset":298264,
			"target":34962
		},
		{
			"buffer":0,
			"byteLength":288,
			"byteOffset":298456,
			"target":34962
		},
		{
			"buffer":0,
			"byteLength":288,
			"byteOffset":298744,
			"target":34962
		},
		{
			"buffer":0,
			"byteLength":192,
			"byteOffset":299032,
			"target":34962
		},
		{
			"buffer":0,
			"byteLength":288,
			"byteOffset":299224,
			"target":34962
		},
		{
			"buffer":0,
			"byteLength":288,
			"byteOffset":299512,
			"target":34962
		},
		{
			"buffer":0,
			"byteLength":192,
			"byteOffset":299800,
			"target":34962
		},
		{
			"buffer":0,
			"byteLength":288,
			"byteOffset":299992,
			"target":34962
		},
		{
			"buffer":0,
			"byteLength":288,
			"byteOffset":300280,
			"target":34962
		},
		{
			"buffer":0,
			"byteLength":192,
			"byteOffset":300568,
			"target":34962
		},
		{
			"buffer":0,
			"byteLength":288,
			"byteOffset":300760,
			"target":34962
		},
		{
			"buffer":0,
			"byteLength":288,
			"byteOffset":301048,
			"target":34962
		},
		{
			"buffer":0,
			"byteLength":192,
			"byteOffset":301336,
			"target":34962
		},
		{
			"buffer":0,
			"byteLength":288,
			"byteOffset":301528,
			"target":34962
		},
		{
			"buffer":0,
			"byteLength":288,
			"byteOffset":301816,
			"target":34962
		},
		{
			"buffer":0,
			"byteLength":192,
			"byteOffset":302104,
			"target":34962
		},
		{
			"buffer":0,
			"byteLength":288,
			"byteOffset":302296,
			"target":34962
		},
		{
			"buffer":0,
			"byteLength":288,
			"byteOffset":302584,
			"target":34962
		},
		{
			"buffer":0,
			"byteLength":192,
			"byteOffset":302872,
			"target":34962
		},
		{
			"buffer":0,
			"byteLength":288,
			"byteOffset":303064,
			"target":34962
		},
		{
			"buffer":0,
			"byteLength":288,
			"byteOffset":303352,
			"target":34962
		},
		{
			"buffer":0,
			"byteLength":192,
			"byteOffset":303640,
			"target":34962
		},
		{
			"buffer":0,
			"byteLength":288,
			"byteOffset":303832,
			"target":34962
		},
		{
			"buffer":0,
			"byteLength":288,
			"byteOffset":304120,
			"target":34962
		},
		{
			"buffer":0,
			"byteLength":192,
			"byteOffset":304408,
			"target":34962
		},
		{
			"buffer":0,
			"byteLength":288,
			"byteOffset":304600,
			"target":34962
		},
		{
			"buffer":0,
			"byteLength":288,
			"byteOffset":304888,
			"target":34962
		},
		{
			"buffer":0,
			"byteLength":192,
			"byteOffset":305176,
			"target":34962
		},
		{
			"buffer":0,
			"byteLength":288,
			"byteOffset":305368,
			"target":34962
		},
		{
			"buffer":0,
			"byteLength":288,
			"byteOffset":305656,
			"target":34962
		},
		{
			"buffer":0,
			"byteLength":192,
			"byteOffset":305944,
			"target":34962
		},
		{
			"buffer":0,
			"byteLength":288,
			"byteOffset":306136,
			"target":34962
		},
		{
			"buffer":0,
			"byteLength":288,
			"byteOffset":306424,
			"target":34962
		},
		{
			"buffer":0,
			"byteLength":192,
			"byteOffset":306712,
			"target":34962
		},
		{
			"buffer":0,
			"byteLength":12384,
			"byteOffset":306904,
			"target":34962
		},
		{
			"buffer":0,
			"byteLength":12384,
			"byteOffset":319288,
			"target":34962
		},
		{
			"buffer":0,
			"byteLength":8256,
			"byteOffset":331672,
			"target":34962
		},
		{
			"buffer":0,
			"byteLength":8256,
			"byteOffset":339928,
			"target":34962
		},
		{
			"buffer":0,
			"byteLength":6936,
			"byteOffset":348184,
			"target":34963
		},
		{
			"buffer":0,
			"byteLength":288,
			"byteOffset":355120,
			"target":34962
		},
		{
			"buffer":0,
			"byteLength":288,
			"byteOffset":355408,
			"target":34962
		},
		{
			"buffer":0,
			"byteLength":192,
			"byteOffset":355696,
			"target":34962
		},
		{
			"buffer":0,
			"byteLength":76644,
			"byteOffset":355888,
			"target":34962
		},
		{
			"buffer":0,
			"byteLength":76644,
			"byteOffset":432532,
			"target":34962
		},
		{
			"buffer":0,
			"byteLength":51096,
			"byteOffset":509176,
			"target":34962
		},
		{
			"buffer":0,
			"byteLength":69060,
			"byteOffset":560272,
			"target":34963
		},
		{
			"buffer":0,
			"byteLength":288,
			"byteOffset":629332,
			"target":34962
		},
		{
			"buffer":0,
			"byteLength":288,
			"byteOffset":629620,
			"target":34962
		},
		{
			"buffer":0,
			"byteLength":192,
			"byteOffset":629908,
			"target":34962
		},
		{
			"buffer":0,
			"byteLength":288,
			"byteOffset":630100,
			"target":34962
		},
		{
			"buffer":0,
			"byteLength":288,
			"byteOffset":630388,
			"target":34962
		},
		{
			"buffer":0,
			"byteLength":192,
			"byteOffset":630676,
			"target":34962
		},
		{
			"buffer":0,
			"byteLength":288,
			"byteOffset":630868,
			"target":34962
		},
		{
			"buffer":0,
			"byteLength":288,
			"byteOffset":631156,
			"target":34962
		},
		{
			"buffer":0,
			"byteLength":192,
			"byteOffset":631444,
			"target":34962
		}
	],
	"samplers":[
		{
			"magFilter":9728,
			"minFilter":9984
		},
		{
			"magFilter":9729,
			"minFilter":9987
		}
	],
	"buffers":[
		{
			"byteLength":631636,
			"uri":"scene.bin"
		}
	]
}
